<svg xmlns="http://www.w3.org/2000/svg" width="1140" height="632" font-family="Helvetica" font-size="11">
<rect width="1140" height="632" fill="#ffffff"/>
<rect x="280" y="40" width="150" height="184" rx="2" fill="#E8F0FE" stroke="#3B5BA5"/>
<text x="355.0" y="56" text-anchor="middle" font-weight="bold">spinnArray</text>
<text x="355.0" y="67" text-anchor="middle" font-style="italic" fill="#555">spinnArray</text>
<circle cx="280" cy="77.0" r="3" fill="#3B5BA5"/>
<text x="286" y="80.0" font-size="9">clk_i</text>
<circle cx="280" cy="95.0" r="3" fill="#3B5BA5"/>
<text x="286" y="98.0" font-size="9">a_bus_i</text>
<circle cx="280" cy="113.0" r="3" fill="#3B5BA5"/>
<text x="286" y="116.0" font-size="9">b_bus_i</text>
<circle cx="280" cy="131.0" r="3" fill="#3B5BA5"/>
<text x="286" y="134.0" font-size="9">mac_en_bus_i</text>
<circle cx="280" cy="149.0" r="3" fill="#3B5BA5"/>
<text x="286" y="152.0" font-size="9">acc_clr_bus_i</text>
<circle cx="280" cy="167.0" r="3" fill="#3B5BA5"/>
<text x="286" y="170.0" font-size="9">acc_out_en_bus_i</text>
<circle cx="280" cy="185.0" r="3" fill="#3B5BA5"/>
<text x="286" y="188.0" font-size="9">data_type_i</text>
<circle cx="280" cy="203.0" r="3" fill="#3B5BA5"/>
<text x="286" y="206.0" font-size="9">rounding_mode_i</text>
<circle cx="430" cy="77.0" r="3" fill="#3B5BA5"/>
<text x="424" y="80.0" font-size="9" text-anchor="end">r_bus_o</text>
<circle cx="430" cy="95.0" r="3" fill="#3B5BA5"/>
<text x="424" y="98.0" font-size="9" text-anchor="end">r_valid_bus_o</text>
<circle cx="430" cy="113.0" r="3" fill="#3B5BA5"/>
<text x="424" y="116.0" font-size="9" text-anchor="end">busy_o</text>
<rect x="280" y="258" width="150" height="58" rx="2" fill="#FCE8E6" stroke="#B5413B"/>
<text x="355.0" y="274" text-anchor="middle" font-weight="bold">skew_bank_0</text>
<text x="355.0" y="285" text-anchor="middle" font-style="italic" fill="#555">skew_bank</text>
<rect x="280" y="350" width="150" height="58" rx="2" fill="#FCE8E6" stroke="#B5413B"/>
<text x="355.0" y="366" text-anchor="middle" font-weight="bold">skew_bank_1</text>
<text x="355.0" y="377" text-anchor="middle" font-style="italic" fill="#555">skew_bank</text>
<rect x="590" y="40" width="150" height="58" rx="2" fill="#FCE8E6" stroke="#B5413B"/>
<text x="665.0" y="56" text-anchor="middle" font-weight="bold">skew_bank_2</text>
<text x="665.0" y="67" text-anchor="middle" font-style="italic" fill="#555">skew_bank</text>
<rect x="280" y="442" width="150" height="58" rx="2" fill="#FCE8E6" stroke="#B5413B"/>
<text x="355.0" y="458" text-anchor="middle" font-weight="bold">vector_rotator_0</text>
<text x="355.0" y="469" text-anchor="middle" font-style="italic" fill="#555">vector_rotator</text>
<rect x="280" y="534" width="150" height="58" rx="2" fill="#FCE8E6" stroke="#B5413B"/>
<text x="355.0" y="550" text-anchor="middle" font-weight="bold">vector_rotator_1</text>
<text x="355.0" y="561" text-anchor="middle" font-style="italic" fill="#555">vector_rotator</text>
<rect x="40" y="40" width="78" height="20" rx="3" fill="#D7E3FC" stroke="#3B5BA5"/>
<text x="79" y="54" text-anchor="middle" font-size="9">clk_i</text>
<rect x="40" y="78" width="78" height="20" rx="3" fill="#D7E3FC" stroke="#3B5BA5"/>
<text x="79" y="92" text-anchor="middle" font-size="9">reset_n_i</text>
<rect x="40" y="116" width="78" height="20" rx="3" fill="#D7E3FC" stroke="#3B5BA5"/>
<text x="79" y="130" text-anchor="middle" font-size="9">a_bus_i [N*DATA_WIDTH]</text>
<rect x="40" y="154" width="78" height="20" rx="3" fill="#D7E3FC" stroke="#3B5BA5"/>
<text x="79" y="168" text-anchor="middle" font-size="9">a_skew_bank_en_i</text>
<rect x="40" y="192" width="78" height="20" rx="3" fill="#D7E3FC" stroke="#3B5BA5"/>
<text x="79" y="206" text-anchor="middle" font-size="9">b_bus_i [N*DATA_WIDTH]</text>
<rect x="40" y="230" width="78" height="20" rx="3" fill="#D7E3FC" stroke="#3B5BA5"/>
<text x="79" y="244" text-anchor="middle" font-size="9">b_skew_bank_en_i</text>
<rect x="40" y="268" width="78" height="20" rx="3" fill="#D7E3FC" stroke="#3B5BA5"/>
<text x="79" y="282" text-anchor="middle" font-size="9">mac_en_bus_i</text>
<rect x="40" y="306" width="78" height="20" rx="3" fill="#D7E3FC" stroke="#3B5BA5"/>
<text x="79" y="320" text-anchor="middle" font-size="9">acc_clr_bus_i</text>
<rect x="40" y="344" width="78" height="20" rx="3" fill="#D7E3FC" stroke="#3B5BA5"/>
<text x="79" y="358" text-anchor="middle" font-size="9">acc_out_en_bus_i</text>
<rect x="40" y="382" width="78" height="20" rx="3" fill="#D7E3FC" stroke="#3B5BA5"/>
<text x="79" y="396" text-anchor="middle" font-size="9">bypass_rotator0_i</text>
<rect x="40" y="420" width="78" height="20" rx="3" fill="#D7E3FC" stroke="#3B5BA5"/>
<text x="79" y="434" text-anchor="middle" font-size="9">bypass_rotator1_i</text>
<rect x="40" y="458" width="78" height="20" rx="3" fill="#D7E3FC" stroke="#3B5BA5"/>
<text x="79" y="472" text-anchor="middle" font-size="9">r_skew_bank_en_i</text>
<rect x="40" y="496" width="78" height="20" rx="3" fill="#D7E3FC" stroke="#3B5BA5"/>
<text x="79" y="510" text-anchor="middle" font-size="9">data_type_i [3]</text>
<rect x="40" y="534" width="78" height="20" rx="3" fill="#D7E3FC" stroke="#3B5BA5"/>
<text x="79" y="548" text-anchor="middle" font-size="9">rounding_mode_i [2]</text>
<rect x="1020" y="40" width="78" height="20" rx="3" fill="#D7E3FC" stroke="#3B5BA5"/>
<text x="1059" y="54" text-anchor="middle" font-size="9">r_bus_o [N*ACC_WIDTH]</text>
<rect x="1020" y="78" width="78" height="20" rx="3" fill="#D7E3FC" stroke="#3B5BA5"/>
<text x="1059" y="92" text-anchor="middle" font-size="9">r_valid_bus_o [N]</text>
<rect x="1020" y="116" width="78" height="20" rx="3" fill="#D7E3FC" stroke="#3B5BA5"/>
<text x="1059" y="130" text-anchor="middle" font-size="9">busy_o</text>
<polyline points="118,50 199.0,50 199.0,77.0 280,77.0" fill="none" stroke="#444" stroke-width="1.2"/>
<polyline points="118,278 199.0,278 199.0,131.0 280,131.0" fill="none" stroke="#444" stroke-width="1.2"/>
<polyline points="118,316 199.0,316 199.0,149.0 280,149.0" fill="none" stroke="#444" stroke-width="1.2"/>
<polyline points="118,354 199.0,354 199.0,167.0 280,167.0" fill="none" stroke="#444" stroke-width="1.2"/>
<polyline points="430,95.0 725.0,95.0 725.0,88 1020,88" fill="none" stroke="#444" stroke-width="1.2"/>
<text x="725.0" y="89.5" text-anchor="middle" font-size="8" fill="#444">[N]</text>
<polyline points="430,113.0 725.0,113.0 725.0,126 1020,126" fill="none" stroke="#444" stroke-width="1.2"/>
<polyline points="118,506 199.0,506 199.0,185.0 280,185.0" fill="none" stroke="#444" stroke-width="1.2"/>
<text x="199.0" y="343.5" text-anchor="middle" font-size="8" fill="#444">[3]</text>
<polyline points="118,544 199.0,544 199.0,203.0 280,203.0" fill="none" stroke="#444" stroke-width="1.2"/>
<text x="199.0" y="371.5" text-anchor="middle" font-size="8" fill="#444">[2]</text>
</svg>