<svg xmlns="http://www.w3.org/2000/svg" width="1824" height="598" font-family="Helvetica"><rect width="1824" height="598" fill="white"/><rect x="22" y="22" width="1780" height="554" rx="3" fill="#F3EEFB" stroke="#6C4BB6" stroke-width="1.3"/><text x="30" y="38" font-weight="bold" font-size="12" fill="#6C4BB6">spinnCore_dense</text><circle cx="22" cy="66" r="2.5" fill="#6C4BB6"/><text x="44" y="62" font-size="8.5" fill="#333">a_bus_i</text><circle cx="22" cy="117" r="2.5" fill="#6C4BB6"/><text x="44" y="113" font-size="8.5" fill="#333">a_skew_bank_en_i</text><circle cx="22" cy="169" r="2.5" fill="#6C4BB6"/><text x="44" y="165" font-size="8.5" fill="#333">b_bus_i</text><circle cx="22" cy="220" r="2.5" fill="#6C4BB6"/><text x="44" y="216" font-size="8.5" fill="#333">b_skew_bank_en_i</text><circle cx="22" cy="271" r="2.5" fill="#6C4BB6"/><text x="44" y="267" font-size="8.5" fill="#333">mac_en_bus_i</text><circle cx="22" cy="323" r="2.5" fill="#6C4BB6"/><text x="44" y="319" font-size="8.5" fill="#333">acc_clr_bus_i</text><circle cx="22" cy="374" r="2.5" fill="#6C4BB6"/><text x="44" y="370" font-size="8.5" fill="#333">acc_out_en_bus_i</text><circle cx="22" cy="425" r="2.5" fill="#6C4BB6"/><text x="44" y="421" font-size="8.5" fill="#333">bypass_rotator0_i</text><circle cx="22" cy="477" r="2.5" fill="#6C4BB6"/><text x="44" y="473" font-size="8.5" fill="#333">bypass_rotator1_i</text><circle cx="22" cy="528" r="2.5" fill="#6C4BB6"/><text x="44" y="524" font-size="8.5" fill="#333">r_skew_bank_en_i</text><circle cx="1802" cy="66" r="2.5" fill="#6C4BB6"/><text x="1780" y="62" font-size="8.5" text-anchor="end" fill="#333">r_bus_o</text><circle cx="1802" cy="297" r="2.5" fill="#6C4BB6"/><text x="1780" y="293" font-size="8.5" text-anchor="end" fill="#333">r_valid_bus_o</text><circle cx="1802" cy="528" r="2.5" fill="#6C4BB6"/><text x="1780" y="524" font-size="8.5" text-anchor="end" fill="#333">busy_o</text><circle cx="56" cy="576" r="2.5" fill="#5F6368"/><text x="56" y="571" font-size="8" fill="#5F6368" text-anchor="middle">clk_i</text><circle cx="128" cy="576" r="2.5" fill="#5F6368"/><text x="128" y="571" font-size="8" fill="#5F6368" text-anchor="middle">reset_n_i</text><rect x="162" y="70" width="172" height="134" rx="3" fill="#EAF7EE" stroke="#3B8A4E" stroke-width="1.3"/><text x="170" y="86" font-weight="bold" font-size="12" fill="#3B8A4E">spinnCore_dense_regfile</text><circle cx="334" cy="114" r="2.5" fill="#3B8A4E"/><text x="312" y="110" font-size="8.5" text-anchor="end" fill="#333">data_type_o</text><circle cx="334" cy="156" r="2.5" fill="#3B8A4E"/><text x="312" y="152" font-size="8.5" text-anchor="end" fill="#333">rounding_mode_o</text><rect x="424" y="70" width="1238" height="458" rx="3" fill="#EAF1FB" stroke="#3B5BA5" stroke-width="1.3"/><text x="432" y="86" font-weight="bold" font-size="12" fill="#3B5BA5">spinnCore</text><circle cx="424" cy="114" r="2.5" fill="#3B5BA5"/><text x="446" y="110" font-size="8.5" fill="#333">a_bus_i</text><circle cx="424" cy="147" r="2.5" fill="#3B5BA5"/><text x="446" y="143" font-size="8.5" fill="#333">a_skew_bank_en_i</text><circle cx="424" cy="181" r="2.5" fill="#3B5BA5"/><text x="446" y="177" font-size="8.5" fill="#333">b_bus_i</text><circle cx="424" cy="214" r="2.5" fill="#3B5BA5"/><text x="446" y="210" font-size="8.5" fill="#333">b_skew_bank_en_i</text><circle cx="424" cy="247" r="2.5" fill="#3B5BA5"/><text x="446" y="243" font-size="8.5" fill="#333">mac_en_bus_i</text><circle cx="424" cy="280" r="2.5" fill="#3B5BA5"/><text x="446" y="276" font-size="8.5" fill="#333">acc_clr_bus_i</text><circle cx="424" cy="314" r="2.5" fill="#3B5BA5"/><text x="446" y="310" font-size="8.5" fill="#333">acc_out_en_bus_i</text><circle cx="424" cy="347" r="2.5" fill="#3B5BA5"/><text x="446" y="343" font-size="8.5" fill="#333">bypass_rotator0_i</text><circle cx="424" cy="380" r="2.5" fill="#3B5BA5"/><text x="446" y="376" font-size="8.5" fill="#333">bypass_rotator1_i</text><circle cx="424" cy="413" r="2.5" fill="#3B5BA5"/><text x="446" y="409" font-size="8.5" fill="#333">r_skew_bank_en_i</text><circle cx="424" cy="447" r="2.5" fill="#3B5BA5"/><text x="446" y="443" font-size="8.5" fill="#333">data_type_i</text><circle cx="424" cy="480" r="2.5" fill="#3B5BA5"/><text x="446" y="476" font-size="8.5" fill="#333">rounding_mode_i</text><circle cx="1662" cy="114" r="2.5" fill="#3B5BA5"/><text x="1640" y="110" font-size="8.5" text-anchor="end" fill="#333">r_bus_o</text><circle cx="1662" cy="297" r="2.5" fill="#3B5BA5"/><text x="1640" y="293" font-size="8.5" text-anchor="end" fill="#333">r_valid_bus_o</text><circle cx="1662" cy="480" r="2.5" fill="#3B5BA5"/><text x="1640" y="476" font-size="8.5" text-anchor="end" fill="#333">busy_o</text><circle cx="458" cy="528" r="2.5" fill="#5F6368"/><text x="458" y="523" font-size="8" fill="#5F6368" text-anchor="middle">clk_i</text><circle cx="530" cy="528" r="2.5" fill="#5F6368"/><text x="530" y="523" font-size="8" fill="#5F6368" text-anchor="middle">reset_n_i</text><rect x="1088" y="118" width="172" height="284" rx="3" fill="#EAF1FB" stroke="#3B5BA5" stroke-width="1.3"/><text x="1096" y="134" font-weight="bold" font-size="12" fill="#3B5BA5">spinnArray</text><circle cx="1088" cy="162" r="2.5" fill="#3B5BA5"/><text x="1110" y="158" font-size="8.5" fill="#333">a_bus_i</text><circle cx="1088" cy="194" r="2.5" fill="#3B5BA5"/><text x="1110" y="190" font-size="8.5" fill="#333">b_bus_i</text><circle cx="1088" cy="226" r="2.5" fill="#3B5BA5"/><text x="1110" y="222" font-size="8.5" fill="#333">mac_en_bus_i</text><circle cx="1088" cy="258" r="2.5" fill="#3B5BA5"/><text x="1110" y="254" font-size="8.5" fill="#333">acc_clr_bus_i</text><circle cx="1088" cy="290" r="2.5" fill="#3B5BA5"/><text x="1110" y="286" font-size="8.5" fill="#333">acc_out_en_bus_i</text><circle cx="1088" cy="322" r="2.5" fill="#3B5BA5"/><text x="1110" y="318" font-size="8.5" fill="#333">data_type_i</text><circle cx="1088" cy="354" r="2.5" fill="#3B5BA5"/><text x="1110" y="350" font-size="8.5" fill="#333">rounding_mode_i</text><circle cx="1260" cy="162" r="2.5" fill="#3B5BA5"/><text x="1238" y="158" font-size="8.5" text-anchor="end" fill="#333">r_bus_o</text><circle cx="1260" cy="258" r="2.5" fill="#3B5BA5"/><text x="1238" y="254" font-size="8.5" text-anchor="end" fill="#333">r_valid_bus_o</text><circle cx="1260" cy="354" r="2.5" fill="#3B5BA5"/><text x="1238" y="350" font-size="8.5" text-anchor="end" fill="#333">busy_o</text><circle cx="1122" cy="402" r="2.5" fill="#5F6368"/><text x="1122" y="397" font-size="8" fill="#5F6368" text-anchor="middle">clk_i</text><rect x="564" y="118" width="172" height="134" rx="3" fill="#FCEDEA" stroke="#B5413B" stroke-width="1.3"/><text x="572" y="134" font-weight="bold" font-size="12" fill="#B5413B">skew_bank_0</text><text x="572" y="145" font-style="italic" font-size="9" fill="#666">skew_bank</text><circle cx="564" cy="162" r="2.5" fill="#B5413B"/><text x="586" y="158" font-size="8.5" fill="#333">d_bus_i</text><circle cx="564" cy="204" r="2.5" fill="#B5413B"/><text x="586" y="200" font-size="8.5" fill="#333">en_i</text><circle cx="736" cy="162" r="2.5" fill="#B5413B"/><text x="714" y="158" font-size="8.5" text-anchor="end" fill="#333">d_bus_o</text><circle cx="598" cy="252" r="2.5" fill="#5F6368"/><text x="598" y="247" font-size="8" fill="#5F6368" text-anchor="middle">clk_i</text><circle cx="670" cy="252" r="2.5" fill="#5F6368"/><text x="670" y="247" font-size="8" fill="#5F6368" text-anchor="middle">reset_n_i</text><rect x="564" y="286" width="172" height="134" rx="3" fill="#FCEDEA" stroke="#B5413B" stroke-width="1.3"/><text x="572" y="302" font-weight="bold" font-size="12" fill="#B5413B">skew_bank_1</text><text x="572" y="313" font-style="italic" font-size="9" fill="#666">skew_bank</text><circle cx="564" cy="330" r="2.5" fill="#B5413B"/><text x="586" y="326" font-size="8.5" fill="#333">d_bus_i</text><circle cx="564" cy="372" r="2.5" fill="#B5413B"/><text x="586" y="368" font-size="8.5" fill="#333">en_i</text><circle cx="736" cy="330" r="2.5" fill="#B5413B"/><text x="714" y="326" font-size="8.5" text-anchor="end" fill="#333">d_bus_o</text><circle cx="598" cy="420" r="2.5" fill="#5F6368"/><text x="598" y="415" font-size="8" fill="#5F6368" text-anchor="middle">clk_i</text><circle cx="670" cy="420" r="2.5" fill="#5F6368"/><text x="670" y="415" font-size="8" fill="#5F6368" text-anchor="middle">reset_n_i</text><rect x="1350" y="118" width="172" height="134" rx="3" fill="#FCEDEA" stroke="#B5413B" stroke-width="1.3"/><text x="1358" y="134" font-weight="bold" font-size="12" fill="#B5413B">skew_bank_2</text><text x="1358" y="145" font-style="italic" font-size="9" fill="#666">skew_bank</text><circle cx="1350" cy="162" r="2.5" fill="#B5413B"/><text x="1372" y="158" font-size="8.5" fill="#333">d_bus_i</text><circle cx="1350" cy="204" r="2.5" fill="#B5413B"/><text x="1372" y="200" font-size="8.5" fill="#333">en_i</text><circle cx="1522" cy="162" r="2.5" fill="#B5413B"/><text x="1500" y="158" font-size="8.5" text-anchor="end" fill="#333">d_bus_o</text><circle cx="1384" cy="252" r="2.5" fill="#5F6368"/><text x="1384" y="247" font-size="8" fill="#5F6368" text-anchor="middle">clk_i</text><circle cx="1456" cy="252" r="2.5" fill="#5F6368"/><text x="1456" y="247" font-size="8" fill="#5F6368" text-anchor="middle">reset_n_i</text><rect x="826" y="118" width="172" height="164" rx="3" fill="#FCEDEA" stroke="#B5413B" stroke-width="1.3"/><text x="834" y="134" font-weight="bold" font-size="12" fill="#B5413B">vector_rotator_0</text><text x="834" y="145" font-style="italic" font-size="9" fill="#666">vector_rotator</text><circle cx="826" cy="162" r="2.5" fill="#B5413B"/><text x="848" y="158" font-size="8.5" fill="#333">data_i</text><circle cx="826" cy="198" r="2.5" fill="#B5413B"/><text x="848" y="194" font-size="8.5" fill="#333">valid_i</text><circle cx="826" cy="234" r="2.5" fill="#B5413B"/><text x="848" y="230" font-size="8.5" fill="#333">bypass_i</text><circle cx="998" cy="162" r="2.5" fill="#B5413B"/><text x="976" y="158" font-size="8.5" text-anchor="end" fill="#333">data_o</text><circle cx="860" cy="282" r="2.5" fill="#5F6368"/><text x="860" y="277" font-size="8" fill="#5F6368" text-anchor="middle">clk_i</text><circle cx="932" cy="282" r="2.5" fill="#5F6368"/><text x="932" y="277" font-size="8" fill="#5F6368" text-anchor="middle">reset_n_i</text><rect x="826" y="316" width="172" height="164" rx="3" fill="#FCEDEA" stroke="#B5413B" stroke-width="1.3"/><text x="834" y="332" font-weight="bold" font-size="12" fill="#B5413B">vector_rotator_1</text><text x="834" y="343" font-style="italic" font-size="9" fill="#666">vector_rotator</text><circle cx="826" cy="360" r="2.5" fill="#B5413B"/><text x="848" y="356" font-size="8.5" fill="#333">data_i</text><circle cx="826" cy="396" r="2.5" fill="#B5413B"/><text x="848" y="392" font-size="8.5" fill="#333">valid_i</text><circle cx="826" cy="432" r="2.5" fill="#B5413B"/><text x="848" y="428" font-size="8.5" fill="#333">bypass_i</text><circle cx="998" cy="360" r="2.5" fill="#B5413B"/><text x="976" y="356" font-size="8.5" text-anchor="end" fill="#333">data_o</text><circle cx="860" cy="480" r="2.5" fill="#5F6368"/><text x="860" y="475" font-size="8" fill="#5F6368" text-anchor="middle">clk_i</text><circle cx="932" cy="480" r="2.5" fill="#5F6368"/><text x="932" y="475" font-size="8" fill="#5F6368" text-anchor="middle">reset_n_i</text><polyline points="334,114 356,114 380,114 380,447 402,447 424,447" fill="none" stroke="#666" stroke-width="1" opacity="0.85"/><text x="380" y="445" font-size="7.5" fill="#666" text-anchor="middle">[3]</text><polyline points="334,156 356,156 369,156 369,480 402,480 424,480" fill="none" stroke="#666" stroke-width="1" opacity="0.85"/><text x="369" y="478" font-size="7.5" fill="#666" text-anchor="middle">[2]</text><polyline points="22,66 44,66 358,66 358,114 402,114 424,114" fill="none" stroke="#666" stroke-width="1" opacity="0.85"/><text x="358" y="112" font-size="7.5" fill="#666" text-anchor="middle">[N*DATA_WIDTH]</text><polyline points="22,117 44,117 347,117 347,147 402,147 424,147" fill="none" stroke="#666" stroke-width="1" opacity="0.85"/><polyline points="22,169 44,169 336,169 336,181 402,181 424,181" fill="none" stroke="#666" stroke-width="1" opacity="0.85"/><text x="336" y="179" font-size="7.5" fill="#666" text-anchor="middle">[N*DATA_WIDTH]</text><polyline points="22,220 44,220 325,220 325,214 402,214 424,214" fill="none" stroke="#666" stroke-width="1" opacity="0.85"/><polyline points="22,271 44,271 314,271 314,247 402,247 424,247" fill="none" stroke="#666" stroke-width="1" opacity="0.85"/><polyline points="22,323 44,323 303,323 303,280 402,280 424,280" fill="none" stroke="#666" stroke-width="1" opacity="0.85"/><polyline points="22,374 44,374 292,374 292,314 402,314 424,314" fill="none" stroke="#666" stroke-width="1" opacity="0.85"/><polyline points="22,425 44,425 281,425 281,347 402,347 424,347" fill="none" stroke="#666" stroke-width="1" opacity="0.85"/><polyline points="22,477 44,477 270,477 270,380 402,380 424,380" fill="none" stroke="#666" stroke-width="1" opacity="0.85"/><polyline points="1662,114 1684,114 1758,114 1758,66 1780,66 1802,66" fill="none" stroke="#666" stroke-width="1" opacity="0.85"/><text x="1758" y="64" font-size="7.5" fill="#666" text-anchor="middle">[N*ACC_WIDTH]</text><polyline points="1662,297 1684,297 1747,297 1780,297 1802,297" fill="none" stroke="#666" stroke-width="1" opacity="0.85"/><text x="1747" y="295" font-size="7.5" fill="#666" text-anchor="middle">[N]</text><polyline points="22,528 44,528 259,528 259,413 402,413 424,413" fill="none" stroke="#666" stroke-width="1" opacity="0.85"/><polyline points="1662,480 1684,480 1736,480 1736,528 1780,528 1802,528" fill="none" stroke="#666" stroke-width="1" opacity="0.85"/><polyline points="998,162 1020,162 1044,162 1066,162 1088,162" fill="none" stroke="#666" stroke-width="1" opacity="0.85"/><text x="1044" y="160" font-size="7.5" fill="#666" text-anchor="middle">[N*DATA_WIDTH]</text><polyline points="998,360 1020,360 1033,360 1033,194 1066,194 1088,194" fill="none" stroke="#666" stroke-width="1" opacity="0.85"/><text x="1033" y="192" font-size="7.5" fill="#666" text-anchor="middle">[N*DATA_WIDTH]</text><polyline points="424,247 446,247 1022,247 1022,226 1066,226 1088,226" fill="none" stroke="#666" stroke-width="1" opacity="0.85"/><polyline points="424,247 446,247 782,247 782,198 804,198 826,198" fill="none" stroke="#666" stroke-width="1" opacity="0.85"/><polyline points="424,247 446,247 782,247 782,396 804,396 826,396" fill="none" stroke="#666" stroke-width="1" opacity="0.85"/><polyline points="424,280 446,280 1011,280 1011,258 1066,258 1088,258" fill="none" stroke="#666" stroke-width="1" opacity="0.85"/><polyline points="424,314 446,314 1000,314 1000,290 1066,290 1088,290" fill="none" stroke="#666" stroke-width="1" opacity="0.85"/><polyline points="1260,162 1282,162 1306,162 1328,162 1350,162" fill="none" stroke="#666" stroke-width="1" opacity="0.85"/><text x="1306" y="160" font-size="7.5" fill="#666" text-anchor="middle">[N*ACC_WIDTH]</text><polyline points="1260,258 1282,258 1486,258 1486,297 1640,297 1662,297" fill="none" stroke="#666" stroke-width="1" opacity="0.85"/><text x="1486" y="295" font-size="7.5" fill="#666" text-anchor="middle">[N]</text><polyline points="1260,354 1282,354 1475,354 1475,480 1640,480 1662,480" fill="none" stroke="#666" stroke-width="1" opacity="0.85"/><polyline points="424,447 446,447 989,447 989,322 1066,322 1088,322" fill="none" stroke="#666" stroke-width="1" opacity="0.85"/><text x="989" y="320" font-size="7.5" fill="#666" text-anchor="middle">[3]</text><polyline points="424,480 446,480 978,480 978,354 1066,354 1088,354" fill="none" stroke="#666" stroke-width="1" opacity="0.85"/><text x="978" y="352" font-size="7.5" fill="#666" text-anchor="middle">[2]</text><polyline points="424,114 446,114 520,114 520,162 542,162 564,162" fill="none" stroke="#666" stroke-width="1" opacity="0.85"/><text x="520" y="160" font-size="7.5" fill="#666" text-anchor="middle">[N*DATA_WIDTH]</text><polyline points="736,162 758,162 771,162 804,162 826,162" fill="none" stroke="#666" stroke-width="1" opacity="0.85"/><text x="771" y="160" font-size="7.5" fill="#666" text-anchor="middle">[N*DATA_WIDTH]</text><polyline points="424,147 446,147 509,147 509,204 542,204 564,204" fill="none" stroke="#666" stroke-width="1" opacity="0.85"/><polyline points="424,181 446,181 520,181 520,330 542,330 564,330" fill="none" stroke="#666" stroke-width="1" opacity="0.85"/><text x="520" y="328" font-size="7.5" fill="#666" text-anchor="middle">[N*DATA_WIDTH]</text><polyline points="736,330 758,330 771,330 771,360 804,360 826,360" fill="none" stroke="#666" stroke-width="1" opacity="0.85"/><text x="771" y="358" font-size="7.5" fill="#666" text-anchor="middle">[N*DATA_WIDTH]</text><polyline points="424,214 446,214 509,214 509,372 542,372 564,372" fill="none" stroke="#666" stroke-width="1" opacity="0.85"/><polyline points="1522,162 1544,162 1555,162 1555,114 1640,114 1662,114" fill="none" stroke="#666" stroke-width="1" opacity="0.85"/><text x="1555" y="112" font-size="7.5" fill="#666" text-anchor="middle">[N*ACC_WIDTH]</text><polyline points="424,413 446,413 1295,413 1295,204 1328,204 1350,204" fill="none" stroke="#666" stroke-width="1" opacity="0.85"/><polyline points="424,347 446,347 760,347 760,234 804,234 826,234" fill="none" stroke="#666" stroke-width="1" opacity="0.85"/><polyline points="424,380 446,380 760,380 760,432 804,432 826,432" fill="none" stroke="#666" stroke-width="1" opacity="0.85"/></svg>