<svg xmlns="http://www.w3.org/2000/svg" width="830" height="336" font-family="Helvetica" font-size="11">
<rect width="830" height="336" fill="#ffffff"/>
<rect x="280" y="40" width="150" height="256" rx="2" fill="#E8F0FE" stroke="#3B5BA5"/>
<text x="355.0" y="56" text-anchor="middle" font-weight="bold">spinnCore_dense</text>
<text x="355.0" y="67" text-anchor="middle" font-style="italic" fill="#555">spinnCore_dense</text>
<circle cx="280" cy="77.0" r="3" fill="#3B5BA5"/>
<text x="286" y="80.0" font-size="9">clk_i</text>
<circle cx="280" cy="95.0" r="3" fill="#3B5BA5"/>
<text x="286" y="98.0" font-size="9">reset_n_i</text>
<circle cx="280" cy="113.0" r="3" fill="#3B5BA5"/>
<text x="286" y="116.0" font-size="9">a_bus_i</text>
<circle cx="280" cy="131.0" r="3" fill="#3B5BA5"/>
<text x="286" y="134.0" font-size="9">a_skew_bank_en_i</text>
<circle cx="280" cy="149.0" r="3" fill="#3B5BA5"/>
<text x="286" y="152.0" font-size="9">b_bus_i</text>
<circle cx="280" cy="167.0" r="3" fill="#3B5BA5"/>
<text x="286" y="170.0" font-size="9">b_skew_bank_en_i</text>
<circle cx="280" cy="185.0" r="3" fill="#3B5BA5"/>
<text x="286" y="188.0" font-size="9">mac_en_bus_i</text>
<circle cx="280" cy="203.0" r="3" fill="#3B5BA5"/>
<text x="286" y="206.0" font-size="9">acc_clr_bus_i</text>
<circle cx="280" cy="221.0" r="3" fill="#3B5BA5"/>
<text x="286" y="224.0" font-size="9">acc_out_en_bus_i</text>
<circle cx="280" cy="239.0" r="3" fill="#3B5BA5"/>
<text x="286" y="242.0" font-size="9">bypass_rotator0_i</text>
<circle cx="280" cy="257.0" r="3" fill="#3B5BA5"/>
<text x="286" y="260.0" font-size="9">bypass_rotator1_i</text>
<circle cx="280" cy="275.0" r="3" fill="#3B5BA5"/>
<text x="286" y="278.0" font-size="9">r_skew_bank_en_i</text>
<circle cx="430" cy="77.0" r="3" fill="#3B5BA5"/>
<text x="424" y="80.0" font-size="9" text-anchor="end">r_bus_o</text>
<circle cx="430" cy="95.0" r="3" fill="#3B5BA5"/>
<text x="424" y="98.0" font-size="9" text-anchor="end">r_valid_bus_o</text>
<circle cx="430" cy="113.0" r="3" fill="#3B5BA5"/>
<text x="424" y="116.0" font-size="9" text-anchor="end">busy_o</text>
</svg>