<svg xmlns="http://www.w3.org/2000/svg" width="1140" height="192" font-family="Helvetica" font-size="11">
<rect width="1140" height="192" fill="#ffffff"/>
<rect x="590" y="40" width="150" height="112" rx="2" fill="#E8F0FE" stroke="#3B5BA5"/>
<text x="665.0" y="56" text-anchor="middle" font-weight="bold">bungo_core</text>
<text x="665.0" y="67" text-anchor="middle" font-style="italic" fill="#555">bungo_core</text>
<circle cx="590" cy="77.0" r="3" fill="#3B5BA5"/>
<text x="596" y="80.0" font-size="9">clk_i</text>
<circle cx="590" cy="95.0" r="3" fill="#3B5BA5"/>
<text x="596" y="98.0" font-size="9">config_i</text>
<circle cx="590" cy="113.0" r="3" fill="#3B5BA5"/>
<text x="596" y="116.0" font-size="9">data_i</text>
<circle cx="590" cy="131.0" r="3" fill="#3B5BA5"/>
<text x="596" y="134.0" font-size="9">bddata_b</text>
<circle cx="740" cy="77.0" r="3" fill="#3B5BA5"/>
<text x="734" y="80.0" font-size="9" text-anchor="end">status_o</text>
<rect x="280" y="40" width="150" height="94" rx="2" fill="#E8F0FE" stroke="#3B5BA5"/>
<text x="355.0" y="56" text-anchor="middle" font-weight="bold">bungo_mgmt</text>
<text x="355.0" y="67" text-anchor="middle" font-style="italic" fill="#555">bungo_mgmt</text>
<circle cx="280" cy="77.0" r="3" fill="#3B5BA5"/>
<text x="286" y="80.0" font-size="9">clk_src_i</text>
<circle cx="280" cy="95.0" r="3" fill="#3B5BA5"/>
<text x="286" y="98.0" font-size="9">status_i</text>
<circle cx="280" cy="113.0" r="3" fill="#3B5BA5"/>
<text x="286" y="116.0" font-size="9">bddata_b</text>
<circle cx="430" cy="77.0" r="3" fill="#3B5BA5"/>
<text x="424" y="80.0" font-size="9" text-anchor="end">clk_test_o</text>
<circle cx="430" cy="95.0" r="3" fill="#3B5BA5"/>
<text x="424" y="98.0" font-size="9" text-anchor="end">config_o</text>
<circle cx="430" cy="113.0" r="3" fill="#3B5BA5"/>
<text x="424" y="116.0" font-size="9" text-anchor="end">data_o</text>
<rect x="40" y="40" width="78" height="20" rx="3" fill="#D7E3FC" stroke="#3B5BA5"/>
<text x="79" y="54" text-anchor="middle" font-size="9">clk_ref_i</text>
<rect x="40" y="78" width="78" height="20" rx="3" fill="#FEF7E0" stroke="#B58B00"/>
<text x="79" y="92" text-anchor="middle" font-size="9">bddata_b [16]</text>
<rect x="1020" y="40" width="78" height="20" rx="3" fill="#D7E3FC" stroke="#3B5BA5"/>
<text x="1059" y="54" text-anchor="middle" font-size="9">clk_test_o</text>
<polyline points="430,77.0 510.0,77.0 510.0,77.0 590,77.0" fill="none" stroke="#444" stroke-width="1.2"/>
<polyline points="430,77.0 725.0,77.0 725.0,50 1020,50" fill="none" stroke="#444" stroke-width="1.2"/>
<polyline points="430,95.0 510.0,95.0 510.0,95.0 590,95.0" fill="none" stroke="#444" stroke-width="1.2"/>
<text x="510.0" y="93.0" text-anchor="middle" font-size="8" fill="#444">[32]</text>
<polyline points="430,113.0 510.0,113.0 510.0,113.0 590,113.0" fill="none" stroke="#444" stroke-width="1.2"/>
<text x="510.0" y="111.0" text-anchor="middle" font-size="8" fill="#444">[DATA_W]</text>
<polyline points="740,77.0 510.0,77.0 510.0,95.0 280,95.0" fill="none" stroke="#444" stroke-width="1.2"/>
<text x="510.0" y="84.0" text-anchor="middle" font-size="8" fill="#444">[16]</text>
<polyline points="590,131.0 435.0,131.0 435.0,113.0 280,113.0" fill="none" stroke="#B58B00" stroke-width="1.2"/>
<text x="435.0" y="120.0" text-anchor="middle" font-size="8" fill="#B58B00">[16]</text>
<polyline points="590,131.0 354.0,131.0 354.0,88 118,88" fill="none" stroke="#B58B00" stroke-width="1.2"/>
<text x="354.0" y="107.5" text-anchor="middle" font-size="8" fill="#B58B00">[16]</text>
<polyline points="118,50 199.0,50 199.0,77.0 280,77.0" fill="none" stroke="#444" stroke-width="1.2"/>
</svg>