<svg xmlns="http://www.w3.org/2000/svg" width="1989" height="932" font-family="Helvetica"><rect width="1989" height="932" fill="white"/><rect x="22" y="22" width="1945" height="734" rx="3" fill="#EFEDF6" stroke="#5F5488" stroke-width="1.3"/><text x="30" y="38" font-weight="bold" font-size="14" fill="#5F5488">spinnCore_dense</text><circle cx="22" cy="192" r="2.5" fill="#5F5488"/><text x="36" y="188" font-size="12" fill="#333">a_bus_i</text><circle cx="22" cy="222" r="2.5" fill="#5F5488"/><text x="36" y="218" font-size="12" fill="#333">bypass_rotator0_i</text><circle cx="22" cy="252" r="2.5" fill="#5F5488"/><text x="36" y="248" font-size="12" fill="#333">a_skew_bank_en_i</text><circle cx="22" cy="309" r="2.5" fill="#5F5488"/><text x="36" y="305" font-size="12" fill="#333">acc_clr_bus_i</text><circle cx="22" cy="377" r="2.5" fill="#5F5488"/><text x="36" y="373" font-size="12" fill="#333">mac_en_bus_i</text><circle cx="22" cy="407" r="2.5" fill="#5F5488"/><text x="36" y="403" font-size="12" fill="#333">r_skew_bank_en_i</text><circle cx="22" cy="437" r="2.5" fill="#5F5488"/><text x="36" y="433" font-size="12" fill="#333">acc_out_en_bus_i</text><circle cx="22" cy="467" r="2.5" fill="#5F5488"/><text x="36" y="463" font-size="12" fill="#333">b_bus_i</text><circle cx="22" cy="527" r="2.5" fill="#5F5488"/><text x="36" y="523" font-size="12" fill="#333">b_skew_bank_en_i</text><circle cx="22" cy="557" r="2.5" fill="#5F5488"/><text x="36" y="553" font-size="12" fill="#333">bypass_rotator1_i</text><circle cx="22" cy="678" r="2.5" fill="#5F6368"/><text x="36" y="674" font-size="12" fill="#5F6368">reset_n_i</text><circle cx="22" cy="708" r="2.5" fill="#5F6368"/><text x="36" y="704" font-size="12" fill="#5F6368">clk_i</text><circle cx="1967" cy="338" r="2.5" fill="#5F5488"/><text x="1953" y="334" font-size="12" text-anchor="end" fill="#333">r_bus_o</text><circle cx="1967" cy="390" r="2.5" fill="#5F5488"/><text x="1953" y="386" font-size="12" text-anchor="end" fill="#333">r_valid_bus_o</text><circle cx="1967" cy="501" r="2.5" fill="#5F5488"/><text x="1953" y="497" font-size="12" text-anchor="end" fill="#333">busy_o</text><rect x="162" y="295" width="172" height="134" rx="3" fill="#ECF2ED" stroke="#557A60" stroke-width="1.3"/><text x="170" y="311" font-weight="bold" font-size="14" fill="#557A60">spinnCore_dense_regfile</text><circle cx="334" cy="339" r="2.5" fill="#557A60"/><text x="320" y="335" font-size="12" text-anchor="end" fill="#333">data_type_o</text><circle cx="334" cy="381" r="2.5" fill="#557A60"/><text x="320" y="377" font-size="12" text-anchor="end" fill="#333">rounding_mode_o</text><rect x="444" y="70" width="1383" height="638" rx="3" fill="#EDF1F6" stroke="#41617F" stroke-width="1.3"/><text x="452" y="86" font-weight="bold" font-size="14" fill="#41617F">spinnCore</text><circle cx="444" cy="192" r="2.5" fill="#41617F"/><text x="458" y="188" font-size="12" fill="#333">a_bus_i</text><circle cx="444" cy="222" r="2.5" fill="#41617F"/><text x="458" y="218" font-size="12" fill="#333">bypass_rotator0_i</text><circle cx="444" cy="252" r="2.5" fill="#41617F"/><text x="458" y="248" font-size="12" fill="#333">a_skew_bank_en_i</text><circle cx="444" cy="309" r="2.5" fill="#41617F"/><text x="458" y="305" font-size="12" fill="#333">acc_clr_bus_i</text><circle cx="444" cy="339" r="2.5" fill="#41617F"/><text x="458" y="335" font-size="12" fill="#333">data_type_i</text><circle cx="444" cy="377" r="2.5" fill="#41617F"/><text x="458" y="373" font-size="12" fill="#333">mac_en_bus_i</text><circle cx="444" cy="407" r="2.5" fill="#41617F"/><text x="458" y="403" font-size="12" fill="#333">r_skew_bank_en_i</text><circle cx="444" cy="437" r="2.5" fill="#41617F"/><text x="458" y="433" font-size="12" fill="#333">acc_out_en_bus_i</text><circle cx="444" cy="467" r="2.5" fill="#41617F"/><text x="458" y="463" font-size="12" fill="#333">b_bus_i</text><circle cx="444" cy="497" r="2.5" fill="#41617F"/><text x="458" y="493" font-size="12" fill="#333">rounding_mode_i</text><circle cx="444" cy="527" r="2.5" fill="#41617F"/><text x="458" y="523" font-size="12" fill="#333">b_skew_bank_en_i</text><circle cx="444" cy="557" r="2.5" fill="#41617F"/><text x="458" y="553" font-size="12" fill="#333">bypass_rotator1_i</text><circle cx="444" cy="630" r="2.5" fill="#5F6368"/><text x="458" y="626" font-size="12" fill="#5F6368">reset_n_i</text><circle cx="444" cy="660" r="2.5" fill="#5F6368"/><text x="458" y="656" font-size="12" fill="#5F6368">clk_i</text><circle cx="1827" cy="338" r="2.5" fill="#41617F"/><text x="1813" y="334" font-size="12" text-anchor="end" fill="#333">r_bus_o</text><circle cx="1827" cy="368" r="2.5" fill="#41617F"/><text x="1813" y="364" font-size="12" text-anchor="end" fill="#333">r_valid_bus_o</text><circle cx="1827" cy="474" r="2.5" fill="#41617F"/><text x="1813" y="470" font-size="12" text-anchor="end" fill="#333">busy_o</text><rect x="1148" y="235" width="257" height="314" rx="3" fill="#EDF1F6" stroke="#41617F" stroke-width="1.3"/><text x="1156" y="251" font-weight="bold" font-size="14" fill="#41617F">spinnArray</text><circle cx="1148" cy="279" r="2.5" fill="#41617F"/><text x="1162" y="275" font-size="12" fill="#333">a_bus_i</text><circle cx="1148" cy="309" r="2.5" fill="#41617F"/><text x="1162" y="305" font-size="12" fill="#333">acc_clr_bus_i</text><circle cx="1148" cy="339" r="2.5" fill="#41617F"/><text x="1162" y="335" font-size="12" fill="#333">data_type_i</text><circle cx="1148" cy="369" r="2.5" fill="#41617F"/><text x="1162" y="365" font-size="12" fill="#333">mac_en_bus_i</text><circle cx="1148" cy="407" r="2.5" fill="#41617F"/><text x="1162" y="403" font-size="12" fill="#333">acc_out_en_bus_i</text><circle cx="1148" cy="441" r="2.5" fill="#41617F"/><text x="1162" y="437" font-size="12" fill="#333">b_bus_i</text><circle cx="1148" cy="471" r="2.5" fill="#41617F"/><text x="1162" y="467" font-size="12" fill="#333">rounding_mode_i</text><circle cx="1148" cy="501" r="2.5" fill="#5F6368"/><text x="1162" y="497" font-size="12" fill="#5F6368">clk_i</text><circle cx="1405" cy="338" r="2.5" fill="#41617F"/><text x="1391" y="334" font-size="12" text-anchor="end" fill="#333">r_bus_o</text><circle cx="1405" cy="390" r="2.5" fill="#41617F"/><text x="1391" y="386" font-size="12" text-anchor="end" fill="#333">r_valid_bus_o</text><circle cx="1405" cy="501" r="2.5" fill="#41617F"/><text x="1391" y="497" font-size="12" text-anchor="end" fill="#333">busy_o</text><rect x="584" y="148" width="172" height="194" rx="3" fill="#F5F0E8" stroke="#9A7A45" stroke-width="1.3"/><text x="592" y="164" font-weight="bold" font-size="14" fill="#9A7A45">skew_bank_0</text><text x="592" y="175" font-style="italic" font-size="9" fill="#666">skew_bank</text><circle cx="584" cy="192" r="2.5" fill="#9A7A45"/><text x="598" y="188" font-size="12" fill="#333">d_bus_i</text><circle cx="584" cy="234" r="2.5" fill="#9A7A45"/><text x="598" y="230" font-size="12" fill="#333">en_i</text><circle cx="584" cy="264" r="2.5" fill="#5F6368"/><text x="598" y="260" font-size="12" fill="#5F6368">reset_n_i</text><circle cx="584" cy="294" r="2.5" fill="#5F6368"/><text x="598" y="290" font-size="12" fill="#5F6368">clk_i</text><circle cx="756" cy="252" r="2.5" fill="#9A7A45"/><text x="742" y="248" font-size="12" text-anchor="end" fill="#333">d_bus_o</text><rect x="584" y="411" width="172" height="194" rx="3" fill="#F5F0E8" stroke="#9A7A45" stroke-width="1.3"/><text x="592" y="427" font-weight="bold" font-size="14" fill="#9A7A45">skew_bank_1</text><text x="592" y="438" font-style="italic" font-size="9" fill="#666">skew_bank</text><circle cx="584" cy="467" r="2.5" fill="#9A7A45"/><text x="598" y="463" font-size="12" fill="#333">d_bus_i</text><circle cx="584" cy="497" r="2.5" fill="#9A7A45"/><text x="598" y="493" font-size="12" fill="#333">en_i</text><circle cx="584" cy="527" r="2.5" fill="#5F6368"/><text x="598" y="523" font-size="12" fill="#5F6368">reset_n_i</text><circle cx="584" cy="557" r="2.5" fill="#5F6368"/><text x="598" y="553" font-size="12" fill="#5F6368">clk_i</text><circle cx="756" cy="521" r="2.5" fill="#9A7A45"/><text x="742" y="517" font-size="12" text-anchor="end" fill="#333">d_bus_o</text><rect x="1515" y="294" width="172" height="194" rx="3" fill="#F5F0E8" stroke="#9A7A45" stroke-width="1.3"/><text x="1523" y="310" font-weight="bold" font-size="14" fill="#9A7A45">skew_bank_2</text><text x="1523" y="321" font-style="italic" font-size="9" fill="#666">skew_bank</text><circle cx="1515" cy="338" r="2.5" fill="#9A7A45"/><text x="1529" y="334" font-size="12" fill="#333">d_bus_i</text><circle cx="1515" cy="380" r="2.5" fill="#9A7A45"/><text x="1529" y="376" font-size="12" fill="#333">en_i</text><circle cx="1515" cy="410" r="2.5" fill="#5F6368"/><text x="1529" y="406" font-size="12" fill="#5F6368">reset_n_i</text><circle cx="1515" cy="440" r="2.5" fill="#5F6368"/><text x="1529" y="436" font-size="12" fill="#5F6368">clk_i</text><circle cx="1687" cy="338" r="2.5" fill="#9A7A45"/><text x="1673" y="334" font-size="12" text-anchor="end" fill="#333">d_bus_o</text><rect x="866" y="166" width="172" height="224" rx="3" fill="#F5F0E8" stroke="#9A7A45" stroke-width="1.3"/><text x="874" y="182" font-weight="bold" font-size="14" fill="#9A7A45">vector_rotator_0</text><text x="874" y="193" font-style="italic" font-size="9" fill="#666">vector_rotator</text><circle cx="866" cy="222" r="2.5" fill="#9A7A45"/><text x="880" y="218" font-size="12" fill="#333">bypass_i</text><circle cx="866" cy="252" r="2.5" fill="#9A7A45"/><text x="880" y="248" font-size="12" fill="#333">data_i</text><circle cx="866" cy="282" r="2.5" fill="#9A7A45"/><text x="880" y="278" font-size="12" fill="#333">valid_i</text><circle cx="866" cy="312" r="2.5" fill="#5F6368"/><text x="880" y="308" font-size="12" fill="#5F6368">reset_n_i</text><circle cx="866" cy="342" r="2.5" fill="#5F6368"/><text x="880" y="338" font-size="12" fill="#5F6368">clk_i</text><circle cx="1038" cy="279" r="2.5" fill="#9A7A45"/><text x="1024" y="275" font-size="12" text-anchor="end" fill="#333">data_o</text><rect x="866" y="436" width="172" height="224" rx="3" fill="#F5F0E8" stroke="#9A7A45" stroke-width="1.3"/><text x="874" y="452" font-weight="bold" font-size="14" fill="#9A7A45">vector_rotator_1</text><text x="874" y="463" font-style="italic" font-size="9" fill="#666">vector_rotator</text><circle cx="866" cy="480" r="2.5" fill="#9A7A45"/><text x="880" y="476" font-size="12" fill="#333">valid_i</text><circle cx="866" cy="513" r="2.5" fill="#9A7A45"/><text x="880" y="509" font-size="12" fill="#333">data_i</text><circle cx="866" cy="552" r="2.5" fill="#9A7A45"/><text x="880" y="548" font-size="12" fill="#333">bypass_i</text><circle cx="866" cy="582" r="2.5" fill="#5F6368"/><text x="880" y="578" font-size="12" fill="#5F6368">reset_n_i</text><circle cx="866" cy="612" r="2.5" fill="#5F6368"/><text x="880" y="608" font-size="12" fill="#5F6368">clk_i</text><circle cx="1038" cy="480" r="2.5" fill="#9A7A45"/><text x="1024" y="476" font-size="12" text-anchor="end" fill="#333">data_o</text><polyline points="334,339 444,339" fill="none" stroke="#38455A" stroke-width="2.0" stroke-linejoin="round" opacity="0.9"/><rect x="438" y="330" width="12" height="12" rx="2" fill="#FFFFFF" opacity="0.85"/><text x="444" y="339" font-size="9" fill="#38455A" text-anchor="middle">3</text><polyline points="334,381 356,381 356,497 444,497" fill="none" stroke="#38455A" stroke-width="2.0" stroke-linejoin="round" opacity="0.9"/><rect x="350" y="488" width="12" height="12" rx="2" fill="#FFFFFF" opacity="0.85"/><text x="356" y="497" font-size="9" fill="#38455A" text-anchor="middle">2</text><polyline points="22,192 444,192" fill="none" stroke="#38455A" stroke-width="2.0" stroke-linejoin="round" opacity="0.9"/><rect x="405" y="183" width="78" height="12" rx="2" fill="#FFFFFF" opacity="0.85"/><text x="444" y="192" font-size="9" fill="#38455A" text-anchor="middle">N*DATA_WIDTH</text><polyline points="22,252 444,252" fill="none" stroke="#556170" stroke-width="1.2" stroke-linejoin="round" opacity="0.9"/><polyline points="22,467 444,467" fill="none" stroke="#38455A" stroke-width="2.0" stroke-linejoin="round" opacity="0.9"/><rect x="405" y="458" width="78" height="12" rx="2" fill="#FFFFFF" opacity="0.85"/><text x="444" y="467" font-size="9" fill="#38455A" text-anchor="middle">N*DATA_WIDTH</text><polyline points="22,527 444,527" fill="none" stroke="#556170" stroke-width="1.2" stroke-linejoin="round" opacity="0.9"/><polyline points="22,377 44,377 44,283 422,283 422,377 444,377" fill="none" stroke="#556170" stroke-width="1.2" stroke-linejoin="round" opacity="0.9"/><polyline points="22,309 44,309 44,222 422,222 422,309 444,309" fill="none" stroke="#556170" stroke-width="1.2" stroke-linejoin="round" opacity="0.9"/><polyline points="22,437 44,437 44,474 422,474 422,437 444,437" fill="none" stroke="#556170" stroke-width="1.2" stroke-linejoin="round" opacity="0.9"/><polyline points="22,222 444,222" fill="none" stroke="#556170" stroke-width="1.2" stroke-linejoin="round" opacity="0.9"/><polyline points="22,557 444,557" fill="none" stroke="#556170" stroke-width="1.2" stroke-linejoin="round" opacity="0.9"/><polyline points="1827,338 1967,338" fill="none" stroke="#38455A" stroke-width="2.0" stroke-linejoin="round" opacity="0.9"/><rect x="1931" y="329" width="72" height="12" rx="2" fill="#FFFFFF" opacity="0.85"/><text x="1967" y="338" font-size="9" fill="#38455A" text-anchor="middle">N*ACC_WIDTH</text><polyline points="1827,368 1849,368 1849,390 1967,390" fill="none" stroke="#38455A" stroke-width="2.0" stroke-linejoin="round" opacity="0.9"/><rect x="1843" y="381" width="12" height="12" rx="2" fill="#FFFFFF" opacity="0.85"/><text x="1849" y="390" font-size="9" fill="#38455A" text-anchor="middle">N</text><polyline points="22,407 150,407 150,467 346,467 346,407 444,407" fill="none" stroke="#556170" stroke-width="1.2" stroke-linejoin="round" opacity="0.9"/><polyline points="1827,474 1849,474 1849,501 1967,501" fill="none" stroke="#556170" stroke-width="1.2" stroke-linejoin="round" opacity="0.9"/><polyline points="1038,279 1148,279" fill="none" stroke="#38455A" stroke-width="2.0" stroke-linejoin="round" opacity="0.9"/><rect x="1109" y="270" width="78" height="12" rx="2" fill="#FFFFFF" opacity="0.85"/><text x="1148" y="279" font-size="9" fill="#38455A" text-anchor="middle">N*DATA_WIDTH</text><polyline points="1038,480 1060,480 1060,441 1148,441" fill="none" stroke="#38455A" stroke-width="2.0" stroke-linejoin="round" opacity="0.9"/><rect x="1021" y="432" width="78" height="12" rx="2" fill="#FFFFFF" opacity="0.85"/><text x="1060" y="441" font-size="9" fill="#38455A" text-anchor="middle">N*DATA_WIDTH</text><polyline points="444,377 466,377 466,369 800,369 800,424 1126,424 1126,369 1148,369" fill="none" stroke="#556170" stroke-width="1.2" stroke-linejoin="round" opacity="0.9"/><polyline points="444,377 844,377 844,282 866,282" fill="none" stroke="#556170" stroke-width="1.2" stroke-linejoin="round" opacity="0.9"/><polyline points="444,377 466,377 466,380 844,380 844,480 866,480" fill="none" stroke="#556170" stroke-width="1.2" stroke-linejoin="round" opacity="0.9"/><polyline points="444,309 466,309 466,354 778,354 778,407 1060,407 1060,309 1148,309" fill="none" stroke="#556170" stroke-width="1.2" stroke-linejoin="round" opacity="0.9"/><polyline points="444,437 490,437 490,390 822,390 822,407 1148,407" fill="none" stroke="#556170" stroke-width="1.2" stroke-linejoin="round" opacity="0.9"/><polyline points="1405,338 1515,338" fill="none" stroke="#38455A" stroke-width="2.0" stroke-linejoin="round" opacity="0.9"/><rect x="1479" y="329" width="72" height="12" rx="2" fill="#FFFFFF" opacity="0.85"/><text x="1515" y="338" font-size="9" fill="#38455A" text-anchor="middle">N*ACC_WIDTH</text><polyline points="1405,390 1427,390 1427,282 1805,282 1805,368 1827,368" fill="none" stroke="#38455A" stroke-width="2.0" stroke-linejoin="round" opacity="0.9"/><rect x="1799" y="273" width="12" height="12" rx="2" fill="#FFFFFF" opacity="0.85"/><text x="1805" y="282" font-size="9" fill="#38455A" text-anchor="middle">N</text><polyline points="1405,501 1805,501 1805,474 1827,474" fill="none" stroke="#556170" stroke-width="1.2" stroke-linejoin="round" opacity="0.9"/><polyline points="444,339 466,339 466,368 854,368 854,402 1050,402 1050,339 1148,339" fill="none" stroke="#38455A" stroke-width="2.0" stroke-linejoin="round" opacity="0.9"/><rect x="848" y="393" width="12" height="12" rx="2" fill="#FFFFFF" opacity="0.85"/><text x="854" y="402" font-size="9" fill="#38455A" text-anchor="middle">3</text><polyline points="444,497 466,497 466,399 854,399 854,407 1126,407 1126,471 1148,471" fill="none" stroke="#38455A" stroke-width="2.0" stroke-linejoin="round" opacity="0.9"/><rect x="848" y="398" width="12" height="12" rx="2" fill="#FFFFFF" opacity="0.85"/><text x="854" y="407" font-size="9" fill="#38455A" text-anchor="middle">2</text><polyline points="444,192 584,192" fill="none" stroke="#38455A" stroke-width="2.0" stroke-linejoin="round" opacity="0.9"/><rect x="545" y="183" width="78" height="12" rx="2" fill="#FFFFFF" opacity="0.85"/><text x="584" y="192" font-size="9" fill="#38455A" text-anchor="middle">N*DATA_WIDTH</text><polyline points="756,252 866,252" fill="none" stroke="#38455A" stroke-width="2.0" stroke-linejoin="round" opacity="0.9"/><rect x="827" y="243" width="78" height="12" rx="2" fill="#FFFFFF" opacity="0.85"/><text x="866" y="252" font-size="9" fill="#38455A" text-anchor="middle">N*DATA_WIDTH</text><polyline points="444,252 466,252 466,234 584,234" fill="none" stroke="#556170" stroke-width="1.2" stroke-linejoin="round" opacity="0.9"/><polyline points="444,467 584,467" fill="none" stroke="#38455A" stroke-width="2.0" stroke-linejoin="round" opacity="0.9"/><rect x="545" y="458" width="78" height="12" rx="2" fill="#FFFFFF" opacity="0.85"/><text x="584" y="467" font-size="9" fill="#38455A" text-anchor="middle">N*DATA_WIDTH</text><polyline points="756,521 778,521 778,513 866,513" fill="none" stroke="#38455A" stroke-width="2.0" stroke-linejoin="round" opacity="0.9"/><rect x="739" y="504" width="78" height="12" rx="2" fill="#FFFFFF" opacity="0.85"/><text x="778" y="513" font-size="9" fill="#38455A" text-anchor="middle">N*DATA_WIDTH</text><polyline points="444,527 466,527 466,497 584,497" fill="none" stroke="#556170" stroke-width="1.2" stroke-linejoin="round" opacity="0.9"/><polyline points="1687,338 1827,338" fill="none" stroke="#38455A" stroke-width="2.0" stroke-linejoin="round" opacity="0.9"/><rect x="1791" y="329" width="72" height="12" rx="2" fill="#FFFFFF" opacity="0.85"/><text x="1827" y="338" font-size="9" fill="#38455A" text-anchor="middle">N*ACC_WIDTH</text><polyline points="444,407 572,407 572,136 1493,136 1493,380 1515,380" fill="none" stroke="#556170" stroke-width="1.2" stroke-linejoin="round" opacity="0.9"/><polyline points="444,222 466,222 466,115 844,115 844,222 866,222" fill="none" stroke="#556170" stroke-width="1.2" stroke-linejoin="round" opacity="0.9"/><polyline points="444,557 466,557 466,672 844,672 844,552 866,552" fill="none" stroke="#556170" stroke-width="1.2" stroke-linejoin="round" opacity="0.9"/><rect x="22" y="778.0" width="250" height="132" rx="4" fill="#FFFFFF" stroke="#9AA6B4"/><text x="32" y="796.0" font-weight="bold" font-size="12" fill="#333">Legend</text><line x1="34" y1="812.0" x2="66" y2="812.0" stroke="#38455A" stroke-width="2.0"/><text x="74" y="816.0" font-size="10" fill="#333">bus (multi-bit, width labelled)</text><line x1="34" y1="834.0" x2="66" y2="834.0" stroke="#556170" stroke-width="1.2"/><text x="74" y="838.0" font-size="10" fill="#333">control (1-bit)</text><line x1="34" y1="856.0" x2="66" y2="856.0" stroke="#557A60" stroke-width="1.6"/><text x="74" y="860.0" font-size="10" fill="#333">bidirectional</text><circle cx="50" cy="878.0" r="4" fill="#9AA0A6" stroke="#5F6368"/><text x="74" y="882.0" font-size="10" fill="#333">clk / reset (implicit, not routed)</text></svg>