<svg xmlns="http://www.w3.org/2000/svg" width="1904" height="884" font-family="Helvetica"><rect width="1904" height="884" fill="white"/><rect x="22" y="22" width="1860" height="686" rx="3" fill="#EFEDF6" stroke="#5F5488" stroke-width="1.3"/><text x="30" y="38" font-weight="bold" font-size="14" fill="#5F5488">spinnCore_dense</text><circle cx="22" cy="66" r="2.5" fill="#5F5488"/><text x="44" y="62" font-size="12" fill="#333">a_bus_i</text><circle cx="22" cy="120" r="2.5" fill="#5F5488"/><text x="44" y="116" font-size="12" fill="#333">a_skew_bank_en_i</text><circle cx="22" cy="174" r="2.5" fill="#5F5488"/><text x="44" y="170" font-size="12" fill="#333">b_bus_i</text><circle cx="22" cy="228" r="2.5" fill="#5F5488"/><text x="44" y="224" font-size="12" fill="#333">b_skew_bank_en_i</text><circle cx="22" cy="282" r="2.5" fill="#5F5488"/><text x="44" y="278" font-size="12" fill="#333">mac_en_bus_i</text><circle cx="22" cy="336" r="2.5" fill="#5F5488"/><text x="44" y="332" font-size="12" fill="#333">acc_clr_bus_i</text><circle cx="22" cy="390" r="2.5" fill="#5F5488"/><text x="44" y="386" font-size="12" fill="#333">acc_out_en_bus_i</text><circle cx="22" cy="444" r="2.5" fill="#5F5488"/><text x="44" y="440" font-size="12" fill="#333">bypass_rotator0_i</text><circle cx="22" cy="498" r="2.5" fill="#5F5488"/><text x="44" y="494" font-size="12" fill="#333">bypass_rotator1_i</text><circle cx="22" cy="552" r="2.5" fill="#5F5488"/><text x="44" y="548" font-size="12" fill="#333">r_skew_bank_en_i</text><circle cx="22" cy="606" r="2.5" fill="#5F6368"/><text x="44" y="602" font-size="12" fill="#5F6368">clk_i</text><circle cx="22" cy="660" r="2.5" fill="#5F6368"/><text x="44" y="656" font-size="12" fill="#5F6368">reset_n_i</text><circle cx="1882" cy="66" r="2.5" fill="#5F5488"/><text x="1860" y="62" font-size="12" text-anchor="end" fill="#333">r_bus_o</text><circle cx="1882" cy="363" r="2.5" fill="#5F5488"/><text x="1860" y="359" font-size="12" text-anchor="end" fill="#333">r_valid_bus_o</text><circle cx="1882" cy="660" r="2.5" fill="#5F5488"/><text x="1860" y="656" font-size="12" text-anchor="end" fill="#333">busy_o</text><rect x="162" y="298" width="172" height="134" rx="3" fill="#ECF2ED" stroke="#557A60" stroke-width="1.3"/><text x="170" y="314" font-weight="bold" font-size="14" fill="#557A60">spinnCore_dense_regfile</text><circle cx="334" cy="342" r="2.5" fill="#557A60"/><text x="312" y="338" font-size="12" text-anchor="end" fill="#333">data_type_o</text><circle cx="334" cy="384" r="2.5" fill="#557A60"/><text x="312" y="380" font-size="12" text-anchor="end" fill="#333">rounding_mode_o</text><rect x="444" y="70" width="1298" height="590" rx="3" fill="#EDF1F6" stroke="#41617F" stroke-width="1.3"/><text x="452" y="86" font-weight="bold" font-size="14" fill="#41617F">spinnCore</text><circle cx="444" cy="114" r="2.5" fill="#41617F"/><text x="466" y="110" font-size="12" fill="#333">a_bus_i</text><circle cx="444" cy="152" r="2.5" fill="#41617F"/><text x="466" y="148" font-size="12" fill="#333">a_skew_bank_en_i</text><circle cx="444" cy="191" r="2.5" fill="#41617F"/><text x="466" y="187" font-size="12" fill="#333">b_bus_i</text><circle cx="444" cy="229" r="2.5" fill="#41617F"/><text x="466" y="225" font-size="12" fill="#333">b_skew_bank_en_i</text><circle cx="444" cy="267" r="2.5" fill="#41617F"/><text x="466" y="263" font-size="12" fill="#333">mac_en_bus_i</text><circle cx="444" cy="306" r="2.5" fill="#41617F"/><text x="466" y="302" font-size="12" fill="#333">acc_clr_bus_i</text><circle cx="444" cy="344" r="2.5" fill="#41617F"/><text x="466" y="340" font-size="12" fill="#333">acc_out_en_bus_i</text><circle cx="444" cy="382" r="2.5" fill="#41617F"/><text x="466" y="378" font-size="12" fill="#333">bypass_rotator0_i</text><circle cx="444" cy="420" r="2.5" fill="#41617F"/><text x="466" y="416" font-size="12" fill="#333">bypass_rotator1_i</text><circle cx="444" cy="459" r="2.5" fill="#41617F"/><text x="466" y="455" font-size="12" fill="#333">r_skew_bank_en_i</text><circle cx="444" cy="497" r="2.5" fill="#41617F"/><text x="466" y="493" font-size="12" fill="#333">data_type_i</text><circle cx="444" cy="535" r="2.5" fill="#41617F"/><text x="466" y="531" font-size="12" fill="#333">rounding_mode_i</text><circle cx="444" cy="574" r="2.5" fill="#5F6368"/><text x="466" y="570" font-size="12" fill="#5F6368">clk_i</text><circle cx="444" cy="612" r="2.5" fill="#5F6368"/><text x="466" y="608" font-size="12" fill="#5F6368">reset_n_i</text><circle cx="1742" cy="114" r="2.5" fill="#41617F"/><text x="1720" y="110" font-size="12" text-anchor="end" fill="#333">r_bus_o</text><circle cx="1742" cy="363" r="2.5" fill="#41617F"/><text x="1720" y="359" font-size="12" text-anchor="end" fill="#333">r_valid_bus_o</text><circle cx="1742" cy="612" r="2.5" fill="#41617F"/><text x="1720" y="608" font-size="12" text-anchor="end" fill="#333">busy_o</text><rect x="1148" y="208" width="172" height="314" rx="3" fill="#EDF1F6" stroke="#41617F" stroke-width="1.3"/><text x="1156" y="224" font-weight="bold" font-size="14" fill="#41617F">spinnArray</text><circle cx="1148" cy="252" r="2.5" fill="#41617F"/><text x="1170" y="248" font-size="12" fill="#333">a_bus_i</text><circle cx="1148" cy="284" r="2.5" fill="#41617F"/><text x="1170" y="280" font-size="12" fill="#333">b_bus_i</text><circle cx="1148" cy="315" r="2.5" fill="#41617F"/><text x="1170" y="311" font-size="12" fill="#333">mac_en_bus_i</text><circle cx="1148" cy="347" r="2.5" fill="#41617F"/><text x="1170" y="343" font-size="12" fill="#333">acc_clr_bus_i</text><circle cx="1148" cy="379" r="2.5" fill="#41617F"/><text x="1170" y="375" font-size="12" fill="#333">acc_out_en_bus_i</text><circle cx="1148" cy="411" r="2.5" fill="#41617F"/><text x="1170" y="407" font-size="12" fill="#333">data_type_i</text><circle cx="1148" cy="442" r="2.5" fill="#41617F"/><text x="1170" y="438" font-size="12" fill="#333">rounding_mode_i</text><circle cx="1148" cy="474" r="2.5" fill="#5F6368"/><text x="1170" y="470" font-size="12" fill="#5F6368">clk_i</text><circle cx="1320" cy="252" r="2.5" fill="#41617F"/><text x="1298" y="248" font-size="12" text-anchor="end" fill="#333">r_bus_o</text><circle cx="1320" cy="363" r="2.5" fill="#41617F"/><text x="1298" y="359" font-size="12" text-anchor="end" fill="#333">r_valid_bus_o</text><circle cx="1320" cy="474" r="2.5" fill="#41617F"/><text x="1298" y="470" font-size="12" text-anchor="end" fill="#333">busy_o</text><rect x="584" y="148" width="172" height="194" rx="3" fill="#F5F0E8" stroke="#9A7A45" stroke-width="1.3"/><text x="592" y="164" font-weight="bold" font-size="14" fill="#9A7A45">skew_bank_0</text><text x="592" y="175" font-style="italic" font-size="9" fill="#666">skew_bank</text><circle cx="584" cy="192" r="2.5" fill="#9A7A45"/><text x="606" y="188" font-size="12" fill="#333">d_bus_i</text><circle cx="584" cy="226" r="2.5" fill="#9A7A45"/><text x="606" y="222" font-size="12" fill="#333">en_i</text><circle cx="584" cy="260" r="2.5" fill="#5F6368"/><text x="606" y="256" font-size="12" fill="#5F6368">clk_i</text><circle cx="584" cy="294" r="2.5" fill="#5F6368"/><text x="606" y="290" font-size="12" fill="#5F6368">reset_n_i</text><circle cx="756" cy="192" r="2.5" fill="#9A7A45"/><text x="734" y="188" font-size="12" text-anchor="end" fill="#333">d_bus_o</text><rect x="584" y="388" width="172" height="194" rx="3" fill="#F5F0E8" stroke="#9A7A45" stroke-width="1.3"/><text x="592" y="404" font-weight="bold" font-size="14" fill="#9A7A45">skew_bank_1</text><text x="592" y="415" font-style="italic" font-size="9" fill="#666">skew_bank</text><circle cx="584" cy="432" r="2.5" fill="#9A7A45"/><text x="606" y="428" font-size="12" fill="#333">d_bus_i</text><circle cx="584" cy="466" r="2.5" fill="#9A7A45"/><text x="606" y="462" font-size="12" fill="#333">en_i</text><circle cx="584" cy="500" r="2.5" fill="#5F6368"/><text x="606" y="496" font-size="12" fill="#5F6368">clk_i</text><circle cx="584" cy="534" r="2.5" fill="#5F6368"/><text x="606" y="530" font-size="12" fill="#5F6368">reset_n_i</text><circle cx="756" cy="432" r="2.5" fill="#9A7A45"/><text x="734" y="428" font-size="12" text-anchor="end" fill="#333">d_bus_o</text><rect x="1430" y="268" width="172" height="194" rx="3" fill="#F5F0E8" stroke="#9A7A45" stroke-width="1.3"/><text x="1438" y="284" font-weight="bold" font-size="14" fill="#9A7A45">skew_bank_2</text><text x="1438" y="295" font-style="italic" font-size="9" fill="#666">skew_bank</text><circle cx="1430" cy="312" r="2.5" fill="#9A7A45"/><text x="1452" y="308" font-size="12" fill="#333">d_bus_i</text><circle cx="1430" cy="346" r="2.5" fill="#9A7A45"/><text x="1452" y="342" font-size="12" fill="#333">en_i</text><circle cx="1430" cy="380" r="2.5" fill="#5F6368"/><text x="1452" y="376" font-size="12" fill="#5F6368">clk_i</text><circle cx="1430" cy="414" r="2.5" fill="#5F6368"/><text x="1452" y="410" font-size="12" fill="#5F6368">reset_n_i</text><circle cx="1602" cy="312" r="2.5" fill="#9A7A45"/><text x="1580" y="308" font-size="12" text-anchor="end" fill="#333">d_bus_o</text><rect x="866" y="118" width="172" height="224" rx="3" fill="#F5F0E8" stroke="#9A7A45" stroke-width="1.3"/><text x="874" y="134" font-weight="bold" font-size="14" fill="#9A7A45">vector_rotator_0</text><text x="874" y="145" font-style="italic" font-size="9" fill="#666">vector_rotator</text><circle cx="866" cy="162" r="2.5" fill="#9A7A45"/><text x="888" y="158" font-size="12" fill="#333">data_i</text><circle cx="866" cy="195" r="2.5" fill="#9A7A45"/><text x="888" y="191" font-size="12" fill="#333">valid_i</text><circle cx="866" cy="228" r="2.5" fill="#9A7A45"/><text x="888" y="224" font-size="12" fill="#333">bypass_i</text><circle cx="866" cy="261" r="2.5" fill="#5F6368"/><text x="888" y="257" font-size="12" fill="#5F6368">clk_i</text><circle cx="866" cy="294" r="2.5" fill="#5F6368"/><text x="888" y="290" font-size="12" fill="#5F6368">reset_n_i</text><circle cx="1038" cy="162" r="2.5" fill="#9A7A45"/><text x="1016" y="158" font-size="12" text-anchor="end" fill="#333">data_o</text><rect x="866" y="388" width="172" height="224" rx="3" fill="#F5F0E8" stroke="#9A7A45" stroke-width="1.3"/><text x="874" y="404" font-weight="bold" font-size="14" fill="#9A7A45">vector_rotator_1</text><text x="874" y="415" font-style="italic" font-size="9" fill="#666">vector_rotator</text><circle cx="866" cy="432" r="2.5" fill="#9A7A45"/><text x="888" y="428" font-size="12" fill="#333">data_i</text><circle cx="866" cy="465" r="2.5" fill="#9A7A45"/><text x="888" y="461" font-size="12" fill="#333">valid_i</text><circle cx="866" cy="498" r="2.5" fill="#9A7A45"/><text x="888" y="494" font-size="12" fill="#333">bypass_i</text><circle cx="866" cy="531" r="2.5" fill="#5F6368"/><text x="888" y="527" font-size="12" fill="#5F6368">clk_i</text><circle cx="866" cy="564" r="2.5" fill="#5F6368"/><text x="888" y="560" font-size="12" fill="#5F6368">reset_n_i</text><circle cx="1038" cy="432" r="2.5" fill="#9A7A45"/><text x="1016" y="428" font-size="12" text-anchor="end" fill="#333">data_o</text><polyline points="334,342 378,342 378,497 444,497" fill="none" stroke="#38455A" stroke-width="2.0" stroke-linejoin="round" opacity="0.9"/><rect x="372" y="488" width="12" height="12" rx="2" fill="#FFFFFF" opacity="0.85"/><text x="378" y="497" font-size="9" fill="#38455A" text-anchor="middle">3</text><polyline points="334,384 356,384 356,535 444,535" fill="none" stroke="#38455A" stroke-width="2.0" stroke-linejoin="round" opacity="0.9"/><rect x="350" y="526" width="12" height="12" rx="2" fill="#FFFFFF" opacity="0.85"/><text x="356" y="535" font-size="9" fill="#38455A" text-anchor="middle">2</text><polyline points="22,66 44,66 44,114 444,114" fill="none" stroke="#38455A" stroke-width="2.0" stroke-linejoin="round" opacity="0.9"/><rect x="5" y="105" width="78" height="12" rx="2" fill="#FFFFFF" opacity="0.85"/><text x="44" y="114" font-size="9" fill="#38455A" text-anchor="middle">N*DATA_WIDTH</text><polyline points="22,120 44,120 44,152 444,152" fill="none" stroke="#556170" stroke-width="1.2" stroke-linejoin="round" opacity="0.9"/><polyline points="22,174 44,174 44,191 444,191" fill="none" stroke="#38455A" stroke-width="2.0" stroke-linejoin="round" opacity="0.9"/><rect x="5" y="182" width="78" height="12" rx="2" fill="#FFFFFF" opacity="0.85"/><text x="44" y="191" font-size="9" fill="#38455A" text-anchor="middle">N*DATA_WIDTH</text><polyline points="22,228 44,228 44,229 444,229" fill="none" stroke="#556170" stroke-width="1.2" stroke-linejoin="round" opacity="0.9"/><polyline points="22,282 44,282 44,267 444,267" fill="none" stroke="#556170" stroke-width="1.2" stroke-linejoin="round" opacity="0.9"/><polyline points="22,336 44,336 44,286 422,286 422,306 444,306" fill="none" stroke="#556170" stroke-width="1.2" stroke-linejoin="round" opacity="0.9"/><polyline points="22,390 44,390 44,282 422,282 422,344 444,344" fill="none" stroke="#556170" stroke-width="1.2" stroke-linejoin="round" opacity="0.9"/><polyline points="22,444 346,444 346,382 444,382" fill="none" stroke="#556170" stroke-width="1.2" stroke-linejoin="round" opacity="0.9"/><polyline points="22,498 422,498 422,420 444,420" fill="none" stroke="#556170" stroke-width="1.2" stroke-linejoin="round" opacity="0.9"/><polyline points="1742,114 1764,114 1764,66 1882,66" fill="none" stroke="#38455A" stroke-width="2.0" stroke-linejoin="round" opacity="0.9"/><rect x="1728" y="57" width="72" height="12" rx="2" fill="#FFFFFF" opacity="0.85"/><text x="1764" y="66" font-size="9" fill="#38455A" text-anchor="middle">N*ACC_WIDTH</text><polyline points="1742,363 1882,363" fill="none" stroke="#38455A" stroke-width="2.0" stroke-linejoin="round" opacity="0.9"/><rect x="1876" y="354" width="12" height="12" rx="2" fill="#FFFFFF" opacity="0.85"/><text x="1882" y="363" font-size="9" fill="#38455A" text-anchor="middle">N</text><polyline points="22,552 44,552 44,459 444,459" fill="none" stroke="#556170" stroke-width="1.2" stroke-linejoin="round" opacity="0.9"/><polyline points="1742,612 1764,612 1764,660 1882,660" fill="none" stroke="#556170" stroke-width="1.2" stroke-linejoin="round" opacity="0.9"/><polyline points="1038,162 1060,162 1060,252 1148,252" fill="none" stroke="#38455A" stroke-width="2.0" stroke-linejoin="round" opacity="0.9"/><rect x="1021" y="243" width="78" height="12" rx="2" fill="#FFFFFF" opacity="0.85"/><text x="1060" y="252" font-size="9" fill="#38455A" text-anchor="middle">N*DATA_WIDTH</text><polyline points="1038,432 1060,432 1060,284 1148,284" fill="none" stroke="#38455A" stroke-width="2.0" stroke-linejoin="round" opacity="0.9"/><rect x="1021" y="275" width="78" height="12" rx="2" fill="#FFFFFF" opacity="0.85"/><text x="1060" y="284" font-size="9" fill="#38455A" text-anchor="middle">N*DATA_WIDTH</text><polyline points="444,267 538,267 538,106 1126,106 1126,315 1148,315" fill="none" stroke="#556170" stroke-width="1.2" stroke-linejoin="round" opacity="0.9"/><polyline points="444,267 490,267 490,136 844,136 844,195 866,195" fill="none" stroke="#556170" stroke-width="1.2" stroke-linejoin="round" opacity="0.9"/><polyline points="444,267 466,267 466,284 572,284 572,354 768,354 768,465 866,465" fill="none" stroke="#556170" stroke-width="1.2" stroke-linejoin="round" opacity="0.9"/><polyline points="444,306 538,306 538,354 1126,354 1126,347 1148,347" fill="none" stroke="#556170" stroke-width="1.2" stroke-linejoin="round" opacity="0.9"/><polyline points="444,344 490,344 490,363 1126,363 1126,379 1148,379" fill="none" stroke="#556170" stroke-width="1.2" stroke-linejoin="round" opacity="0.9"/><polyline points="1320,252 1342,252 1342,312 1430,312" fill="none" stroke="#38455A" stroke-width="2.0" stroke-linejoin="round" opacity="0.9"/><rect x="1306" y="303" width="72" height="12" rx="2" fill="#FFFFFF" opacity="0.85"/><text x="1342" y="312" font-size="9" fill="#38455A" text-anchor="middle">N*ACC_WIDTH</text><polyline points="1320,363 1342,363 1342,474 1720,474 1720,363 1742,363" fill="none" stroke="#38455A" stroke-width="2.0" stroke-linejoin="round" opacity="0.9"/><rect x="1714" y="465" width="12" height="12" rx="2" fill="#FFFFFF" opacity="0.85"/><text x="1720" y="474" font-size="9" fill="#38455A" text-anchor="middle">N</text><polyline points="1320,474 1342,474 1342,612 1742,612" fill="none" stroke="#556170" stroke-width="1.2" stroke-linejoin="round" opacity="0.9"/><polyline points="444,497 538,497 538,376 1126,376 1126,411 1148,411" fill="none" stroke="#38455A" stroke-width="2.0" stroke-linejoin="round" opacity="0.9"/><rect x="1120" y="367" width="12" height="12" rx="2" fill="#FFFFFF" opacity="0.85"/><text x="1126" y="376" font-size="9" fill="#38455A" text-anchor="middle">3</text><polyline points="444,535 466,535 466,658 1126,658 1126,442 1148,442" fill="none" stroke="#38455A" stroke-width="2.0" stroke-linejoin="round" opacity="0.9"/><rect x="1120" y="649" width="12" height="12" rx="2" fill="#FFFFFF" opacity="0.85"/><text x="1126" y="658" font-size="9" fill="#38455A" text-anchor="middle">2</text><polyline points="444,114 466,114 466,192 584,192" fill="none" stroke="#38455A" stroke-width="2.0" stroke-linejoin="round" opacity="0.9"/><rect x="427" y="183" width="78" height="12" rx="2" fill="#FFFFFF" opacity="0.85"/><text x="466" y="192" font-size="9" fill="#38455A" text-anchor="middle">N*DATA_WIDTH</text><polyline points="756,192 778,192 778,162 866,162" fill="none" stroke="#38455A" stroke-width="2.0" stroke-linejoin="round" opacity="0.9"/><rect x="739" y="153" width="78" height="12" rx="2" fill="#FFFFFF" opacity="0.85"/><text x="778" y="162" font-size="9" fill="#38455A" text-anchor="middle">N*DATA_WIDTH</text><polyline points="444,152 562,152 562,226 584,226" fill="none" stroke="#556170" stroke-width="1.2" stroke-linejoin="round" opacity="0.9"/><polyline points="444,191 514,191 514,432 584,432" fill="none" stroke="#38455A" stroke-width="2.0" stroke-linejoin="round" opacity="0.9"/><rect x="475" y="423" width="78" height="12" rx="2" fill="#FFFFFF" opacity="0.85"/><text x="514" y="432" font-size="9" fill="#38455A" text-anchor="middle">N*DATA_WIDTH</text><polyline points="756,432 866,432" fill="none" stroke="#38455A" stroke-width="2.0" stroke-linejoin="round" opacity="0.9"/><rect x="827" y="423" width="78" height="12" rx="2" fill="#FFFFFF" opacity="0.85"/><text x="866" y="432" font-size="9" fill="#38455A" text-anchor="middle">N*DATA_WIDTH</text><polyline points="444,229 562,229 562,466 584,466" fill="none" stroke="#556170" stroke-width="1.2" stroke-linejoin="round" opacity="0.9"/><polyline points="1602,312 1624,312 1624,114 1742,114" fill="none" stroke="#38455A" stroke-width="2.0" stroke-linejoin="round" opacity="0.9"/><rect x="1588" y="105" width="72" height="12" rx="2" fill="#FFFFFF" opacity="0.85"/><text x="1624" y="114" font-size="9" fill="#38455A" text-anchor="middle">N*ACC_WIDTH</text><polyline points="444,459 572,459 572,624 1408,624 1408,346 1430,346" fill="none" stroke="#556170" stroke-width="1.2" stroke-linejoin="round" opacity="0.9"/><polyline points="444,382 572,382 572,363 768,363 768,228 866,228" fill="none" stroke="#556170" stroke-width="1.2" stroke-linejoin="round" opacity="0.9"/><polyline points="444,420 466,420 466,594 844,594 844,498 866,498" fill="none" stroke="#556170" stroke-width="1.2" stroke-linejoin="round" opacity="0.9"/><rect x="22" y="730.0" width="250" height="132" rx="4" fill="#FFFFFF" stroke="#9AA6B4"/><text x="32" y="748.0" font-weight="bold" font-size="12" fill="#333">Legend</text><line x1="34" y1="764.0" x2="66" y2="764.0" stroke="#38455A" stroke-width="2.0"/><text x="74" y="768.0" font-size="10" fill="#333">bus (multi-bit, width labelled)</text><line x1="34" y1="786.0" x2="66" y2="786.0" stroke="#556170" stroke-width="1.2"/><text x="74" y="790.0" font-size="10" fill="#333">control (1-bit)</text><line x1="34" y1="808.0" x2="66" y2="808.0" stroke="#557A60" stroke-width="1.6"/><text x="74" y="812.0" font-size="10" fill="#333">bidirectional</text><circle cx="50" cy="830.0" r="4" fill="#9AA0A6" stroke="#5F6368"/><text x="74" y="834.0" font-size="10" fill="#333">clk / reset (implicit, not routed)</text></svg>