<svg xmlns="http://www.w3.org/2000/svg" width="1904" height="884" font-family="Helvetica"><rect width="1904" height="884" fill="white"/><rect x="22" y="22" width="1860" height="686" rx="3" fill="#EFEDF6" stroke="#5F5488" stroke-width="1.3"/><text x="30" y="38" font-weight="bold" font-size="14" fill="#5F5488">spinnCore_dense</text><circle cx="22" cy="132" r="2.5" fill="#5F5488"/><text x="36" y="128" font-size="12" fill="#333">a_bus_i</text><circle cx="22" cy="162" r="2.5" fill="#5F5488"/><text x="36" y="158" font-size="12" fill="#333">bypass_rotator0_i</text><circle cx="22" cy="192" r="2.5" fill="#5F5488"/><text x="36" y="188" font-size="12" fill="#333">a_skew_bank_en_i</text><circle cx="22" cy="266" r="2.5" fill="#5F5488"/><text x="36" y="262" font-size="12" fill="#333">mac_en_bus_i</text><circle cx="22" cy="296" r="2.5" fill="#5F5488"/><text x="36" y="292" font-size="12" fill="#333">acc_clr_bus_i</text><circle cx="22" cy="372" r="2.5" fill="#5F5488"/><text x="36" y="368" font-size="12" fill="#333">b_bus_i</text><circle cx="22" cy="402" r="2.5" fill="#5F5488"/><text x="36" y="398" font-size="12" fill="#333">acc_out_en_bus_i</text><circle cx="22" cy="432" r="2.5" fill="#5F5488"/><text x="36" y="428" font-size="12" fill="#333">r_skew_bank_en_i</text><circle cx="22" cy="492" r="2.5" fill="#5F5488"/><text x="36" y="488" font-size="12" fill="#333">b_skew_bank_en_i</text><circle cx="22" cy="522" r="2.5" fill="#5F5488"/><text x="36" y="518" font-size="12" fill="#333">bypass_rotator1_i</text><circle cx="22" cy="630" r="2.5" fill="#5F6368"/><text x="36" y="626" font-size="12" fill="#5F6368">reset_n_i</text><circle cx="22" cy="660" r="2.5" fill="#5F6368"/><text x="36" y="656" font-size="12" fill="#5F6368">clk_i</text><circle cx="1882" cy="312" r="2.5" fill="#5F5488"/><text x="1868" y="308" font-size="12" text-anchor="end" fill="#333">r_bus_o</text><circle cx="1882" cy="363" r="2.5" fill="#5F5488"/><text x="1868" y="359" font-size="12" text-anchor="end" fill="#333">r_valid_bus_o</text><circle cx="1882" cy="474" r="2.5" fill="#5F5488"/><text x="1868" y="470" font-size="12" text-anchor="end" fill="#333">busy_o</text><rect x="162" y="298" width="172" height="134" rx="3" fill="#ECF2ED" stroke="#557A60" stroke-width="1.3"/><text x="170" y="314" font-weight="bold" font-size="14" fill="#557A60">spinnCore_dense_regfile</text><circle cx="334" cy="342" r="2.5" fill="#557A60"/><text x="320" y="338" font-size="12" text-anchor="end" fill="#333">data_type_o</text><circle cx="334" cy="384" r="2.5" fill="#557A60"/><text x="320" y="380" font-size="12" text-anchor="end" fill="#333">rounding_mode_o</text><rect x="444" y="70" width="1298" height="590" rx="3" fill="#EDF1F6" stroke="#41617F" stroke-width="1.3"/><text x="452" y="86" font-weight="bold" font-size="14" fill="#41617F">spinnCore</text><circle cx="444" cy="162" r="2.5" fill="#41617F"/><text x="458" y="158" font-size="12" fill="#333">a_bus_i</text><circle cx="444" cy="192" r="2.5" fill="#41617F"/><text x="458" y="188" font-size="12" fill="#333">bypass_rotator0_i</text><circle cx="444" cy="222" r="2.5" fill="#41617F"/><text x="458" y="218" font-size="12" fill="#333">a_skew_bank_en_i</text><circle cx="444" cy="252" r="2.5" fill="#41617F"/><text x="458" y="248" font-size="12" fill="#333">acc_clr_bus_i</text><circle cx="444" cy="296" r="2.5" fill="#41617F"/><text x="458" y="292" font-size="12" fill="#333">mac_en_bus_i</text><circle cx="444" cy="326" r="2.5" fill="#41617F"/><text x="458" y="322" font-size="12" fill="#333">data_type_i</text><circle cx="444" cy="402" r="2.5" fill="#41617F"/><text x="458" y="398" font-size="12" fill="#333">b_bus_i</text><circle cx="444" cy="432" r="2.5" fill="#41617F"/><text x="458" y="428" font-size="12" fill="#333">acc_out_en_bus_i</text><circle cx="444" cy="462" r="2.5" fill="#41617F"/><text x="458" y="458" font-size="12" fill="#333">r_skew_bank_en_i</text><circle cx="444" cy="492" r="2.5" fill="#41617F"/><text x="458" y="488" font-size="12" fill="#333">rounding_mode_i</text><circle cx="444" cy="522" r="2.5" fill="#41617F"/><text x="458" y="518" font-size="12" fill="#333">b_skew_bank_en_i</text><circle cx="444" cy="552" r="2.5" fill="#41617F"/><text x="458" y="548" font-size="12" fill="#333">bypass_rotator1_i</text><circle cx="444" cy="582" r="2.5" fill="#5F6368"/><text x="458" y="578" font-size="12" fill="#5F6368">reset_n_i</text><circle cx="444" cy="612" r="2.5" fill="#5F6368"/><text x="458" y="608" font-size="12" fill="#5F6368">clk_i</text><circle cx="1742" cy="312" r="2.5" fill="#41617F"/><text x="1728" y="308" font-size="12" text-anchor="end" fill="#333">r_bus_o</text><circle cx="1742" cy="363" r="2.5" fill="#41617F"/><text x="1728" y="359" font-size="12" text-anchor="end" fill="#333">r_valid_bus_o</text><circle cx="1742" cy="474" r="2.5" fill="#41617F"/><text x="1728" y="470" font-size="12" text-anchor="end" fill="#333">busy_o</text><rect x="1148" y="208" width="172" height="314" rx="3" fill="#EDF1F6" stroke="#41617F" stroke-width="1.3"/><text x="1156" y="224" font-weight="bold" font-size="14" fill="#41617F">spinnArray</text><circle cx="1148" cy="252" r="2.5" fill="#41617F"/><text x="1162" y="248" font-size="12" fill="#333">a_bus_i</text><circle cx="1148" cy="282" r="2.5" fill="#41617F"/><text x="1162" y="278" font-size="12" fill="#333">acc_clr_bus_i</text><circle cx="1148" cy="312" r="2.5" fill="#41617F"/><text x="1162" y="308" font-size="12" fill="#333">mac_en_bus_i</text><circle cx="1148" cy="342" r="2.5" fill="#41617F"/><text x="1162" y="338" font-size="12" fill="#333">data_type_i</text><circle cx="1148" cy="384" r="2.5" fill="#41617F"/><text x="1162" y="380" font-size="12" fill="#333">acc_out_en_bus_i</text><circle cx="1148" cy="414" r="2.5" fill="#41617F"/><text x="1162" y="410" font-size="12" fill="#333">b_bus_i</text><circle cx="1148" cy="444" r="2.5" fill="#41617F"/><text x="1162" y="440" font-size="12" fill="#333">rounding_mode_i</text><circle cx="1148" cy="474" r="2.5" fill="#5F6368"/><text x="1162" y="470" font-size="12" fill="#5F6368">clk_i</text><circle cx="1320" cy="312" r="2.5" fill="#41617F"/><text x="1306" y="308" font-size="12" text-anchor="end" fill="#333">r_bus_o</text><circle cx="1320" cy="363" r="2.5" fill="#41617F"/><text x="1306" y="359" font-size="12" text-anchor="end" fill="#333">r_valid_bus_o</text><circle cx="1320" cy="474" r="2.5" fill="#41617F"/><text x="1306" y="470" font-size="12" text-anchor="end" fill="#333">busy_o</text><rect x="584" y="148" width="172" height="194" rx="3" fill="#F5F0E8" stroke="#9A7A45" stroke-width="1.3"/><text x="592" y="164" font-weight="bold" font-size="14" fill="#9A7A45">skew_bank_0</text><text x="592" y="175" font-style="italic" font-size="9" fill="#666">skew_bank</text><circle cx="584" cy="192" r="2.5" fill="#9A7A45"/><text x="598" y="188" font-size="12" fill="#333">d_bus_i</text><circle cx="584" cy="222" r="2.5" fill="#9A7A45"/><text x="598" y="218" font-size="12" fill="#333">en_i</text><circle cx="584" cy="264" r="2.5" fill="#5F6368"/><text x="598" y="260" font-size="12" fill="#5F6368">reset_n_i</text><circle cx="584" cy="294" r="2.5" fill="#5F6368"/><text x="598" y="290" font-size="12" fill="#5F6368">clk_i</text><circle cx="756" cy="192" r="2.5" fill="#9A7A45"/><text x="742" y="188" font-size="12" text-anchor="end" fill="#333">d_bus_o</text><rect x="584" y="388" width="172" height="194" rx="3" fill="#F5F0E8" stroke="#9A7A45" stroke-width="1.3"/><text x="592" y="404" font-weight="bold" font-size="14" fill="#9A7A45">skew_bank_1</text><text x="592" y="415" font-style="italic" font-size="9" fill="#666">skew_bank</text><circle cx="584" cy="432" r="2.5" fill="#9A7A45"/><text x="598" y="428" font-size="12" fill="#333">d_bus_i</text><circle cx="584" cy="474" r="2.5" fill="#9A7A45"/><text x="598" y="470" font-size="12" fill="#333">en_i</text><circle cx="584" cy="504" r="2.5" fill="#5F6368"/><text x="598" y="500" font-size="12" fill="#5F6368">reset_n_i</text><circle cx="584" cy="534" r="2.5" fill="#5F6368"/><text x="598" y="530" font-size="12" fill="#5F6368">clk_i</text><circle cx="756" cy="462" r="2.5" fill="#9A7A45"/><text x="742" y="458" font-size="12" text-anchor="end" fill="#333">d_bus_o</text><rect x="1430" y="268" width="172" height="194" rx="3" fill="#F5F0E8" stroke="#9A7A45" stroke-width="1.3"/><text x="1438" y="284" font-weight="bold" font-size="14" fill="#9A7A45">skew_bank_2</text><text x="1438" y="295" font-style="italic" font-size="9" fill="#666">skew_bank</text><circle cx="1430" cy="312" r="2.5" fill="#9A7A45"/><text x="1444" y="308" font-size="12" fill="#333">d_bus_i</text><circle cx="1430" cy="354" r="2.5" fill="#9A7A45"/><text x="1444" y="350" font-size="12" fill="#333">en_i</text><circle cx="1430" cy="384" r="2.5" fill="#5F6368"/><text x="1444" y="380" font-size="12" fill="#5F6368">reset_n_i</text><circle cx="1430" cy="414" r="2.5" fill="#5F6368"/><text x="1444" y="410" font-size="12" fill="#5F6368">clk_i</text><circle cx="1602" cy="312" r="2.5" fill="#9A7A45"/><text x="1588" y="308" font-size="12" text-anchor="end" fill="#333">d_bus_o</text><rect x="866" y="118" width="172" height="224" rx="3" fill="#F5F0E8" stroke="#9A7A45" stroke-width="1.3"/><text x="874" y="134" font-weight="bold" font-size="14" fill="#9A7A45">vector_rotator_0</text><text x="874" y="145" font-style="italic" font-size="9" fill="#666">vector_rotator</text><circle cx="866" cy="162" r="2.5" fill="#9A7A45"/><text x="880" y="158" font-size="12" fill="#333">bypass_i</text><circle cx="866" cy="192" r="2.5" fill="#9A7A45"/><text x="880" y="188" font-size="12" fill="#333">data_i</text><circle cx="866" cy="234" r="2.5" fill="#9A7A45"/><text x="880" y="230" font-size="12" fill="#333">valid_i</text><circle cx="866" cy="264" r="2.5" fill="#5F6368"/><text x="880" y="260" font-size="12" fill="#5F6368">reset_n_i</text><circle cx="866" cy="294" r="2.5" fill="#5F6368"/><text x="880" y="290" font-size="12" fill="#5F6368">clk_i</text><circle cx="1038" cy="252" r="2.5" fill="#9A7A45"/><text x="1024" y="248" font-size="12" text-anchor="end" fill="#333">data_o</text><rect x="866" y="388" width="172" height="224" rx="3" fill="#F5F0E8" stroke="#9A7A45" stroke-width="1.3"/><text x="874" y="404" font-weight="bold" font-size="14" fill="#9A7A45">vector_rotator_1</text><text x="874" y="415" font-style="italic" font-size="9" fill="#666">vector_rotator</text><circle cx="866" cy="432" r="2.5" fill="#9A7A45"/><text x="880" y="428" font-size="12" fill="#333">valid_i</text><circle cx="866" cy="462" r="2.5" fill="#9A7A45"/><text x="880" y="458" font-size="12" fill="#333">data_i</text><circle cx="866" cy="504" r="2.5" fill="#9A7A45"/><text x="880" y="500" font-size="12" fill="#333">bypass_i</text><circle cx="866" cy="534" r="2.5" fill="#5F6368"/><text x="880" y="530" font-size="12" fill="#5F6368">reset_n_i</text><circle cx="866" cy="564" r="2.5" fill="#5F6368"/><text x="880" y="560" font-size="12" fill="#5F6368">clk_i</text><circle cx="1038" cy="432" r="2.5" fill="#9A7A45"/><text x="1024" y="428" font-size="12" text-anchor="end" fill="#333">data_o</text><polyline points="334,342 356,342 356,326 444,326" fill="none" stroke="#38455A" stroke-width="2.0" stroke-linejoin="round" opacity="0.9"/><rect x="350" y="317" width="12" height="12" rx="2" fill="#FFFFFF" opacity="0.85"/><text x="356" y="326" font-size="9" fill="#38455A" text-anchor="middle">3</text><polyline points="334,384 356,384 356,492 444,492" fill="none" stroke="#38455A" stroke-width="2.0" stroke-linejoin="round" opacity="0.9"/><rect x="350" y="483" width="12" height="12" rx="2" fill="#FFFFFF" opacity="0.85"/><text x="356" y="492" font-size="9" fill="#38455A" text-anchor="middle">2</text><polyline points="22,132 44,132 44,162 444,162" fill="none" stroke="#38455A" stroke-width="2.0" stroke-linejoin="round" opacity="0.9"/><rect x="5" y="153" width="78" height="12" rx="2" fill="#FFFFFF" opacity="0.85"/><text x="44" y="162" font-size="9" fill="#38455A" text-anchor="middle">N*DATA_WIDTH</text><polyline points="22,192 44,192 44,222 444,222" fill="none" stroke="#556170" stroke-width="1.2" stroke-linejoin="round" opacity="0.9"/><polyline points="22,372 44,372 44,462 422,462 422,402 444,402" fill="none" stroke="#38455A" stroke-width="2.0" stroke-linejoin="round" opacity="0.9"/><rect x="383" y="453" width="78" height="12" rx="2" fill="#FFFFFF" opacity="0.85"/><text x="422" y="462" font-size="9" fill="#38455A" text-anchor="middle">N*DATA_WIDTH</text><polyline points="22,492 44,492 44,522 444,522" fill="none" stroke="#556170" stroke-width="1.2" stroke-linejoin="round" opacity="0.9"/><polyline points="22,266 422,266 422,296 444,296" fill="none" stroke="#556170" stroke-width="1.2" stroke-linejoin="round" opacity="0.9"/><polyline points="22,296 44,296 44,252 444,252" fill="none" stroke="#556170" stroke-width="1.2" stroke-linejoin="round" opacity="0.9"/><polyline points="22,402 150,402 150,444 346,444 346,432 444,432" fill="none" stroke="#556170" stroke-width="1.2" stroke-linejoin="round" opacity="0.9"/><polyline points="22,162 44,162 44,192 444,192" fill="none" stroke="#556170" stroke-width="1.2" stroke-linejoin="round" opacity="0.9"/><polyline points="22,522 44,522 44,552 444,552" fill="none" stroke="#556170" stroke-width="1.2" stroke-linejoin="round" opacity="0.9"/><polyline points="1742,312 1882,312" fill="none" stroke="#38455A" stroke-width="2.0" stroke-linejoin="round" opacity="0.9"/><rect x="1846" y="303" width="72" height="12" rx="2" fill="#FFFFFF" opacity="0.85"/><text x="1882" y="312" font-size="9" fill="#38455A" text-anchor="middle">N*ACC_WIDTH</text><polyline points="1742,363 1882,363" fill="none" stroke="#38455A" stroke-width="2.0" stroke-linejoin="round" opacity="0.9"/><rect x="1876" y="354" width="12" height="12" rx="2" fill="#FFFFFF" opacity="0.85"/><text x="1882" y="363" font-size="9" fill="#38455A" text-anchor="middle">N</text><polyline points="22,432 70,432 70,474 422,474 422,462 444,462" fill="none" stroke="#556170" stroke-width="1.2" stroke-linejoin="round" opacity="0.9"/><polyline points="1742,474 1882,474" fill="none" stroke="#556170" stroke-width="1.2" stroke-linejoin="round" opacity="0.9"/><polyline points="1038,252 1148,252" fill="none" stroke="#38455A" stroke-width="2.0" stroke-linejoin="round" opacity="0.9"/><rect x="1109" y="243" width="78" height="12" rx="2" fill="#FFFFFF" opacity="0.85"/><text x="1148" y="252" font-size="9" fill="#38455A" text-anchor="middle">N*DATA_WIDTH</text><polyline points="1038,432 1060,432 1060,414 1148,414" fill="none" stroke="#38455A" stroke-width="2.0" stroke-linejoin="round" opacity="0.9"/><rect x="1021" y="405" width="78" height="12" rx="2" fill="#FFFFFF" opacity="0.85"/><text x="1060" y="414" font-size="9" fill="#38455A" text-anchor="middle">N*DATA_WIDTH</text><polyline points="444,296 490,296 490,363 1126,363 1126,312 1148,312" fill="none" stroke="#556170" stroke-width="1.2" stroke-linejoin="round" opacity="0.9"/><polyline points="444,296 572,296 572,354 768,354 768,234 866,234" fill="none" stroke="#556170" stroke-width="1.2" stroke-linejoin="round" opacity="0.9"/><polyline points="444,296 466,296 466,312 562,312 562,376 768,376 768,432 866,432" fill="none" stroke="#556170" stroke-width="1.2" stroke-linejoin="round" opacity="0.9"/><polyline points="444,252 490,252 490,106 1126,106 1126,282 1148,282" fill="none" stroke="#556170" stroke-width="1.2" stroke-linejoin="round" opacity="0.9"/><polyline points="444,432 572,432 572,376 1050,376 1050,384 1148,384" fill="none" stroke="#556170" stroke-width="1.2" stroke-linejoin="round" opacity="0.9"/><polyline points="1320,312 1430,312" fill="none" stroke="#38455A" stroke-width="2.0" stroke-linejoin="round" opacity="0.9"/><rect x="1394" y="303" width="72" height="12" rx="2" fill="#FFFFFF" opacity="0.85"/><text x="1430" y="312" font-size="9" fill="#38455A" text-anchor="middle">N*ACC_WIDTH</text><polyline points="1320,363 1342,363 1342,256 1720,256 1720,363 1742,363" fill="none" stroke="#38455A" stroke-width="2.0" stroke-linejoin="round" opacity="0.9"/><rect x="1714" y="247" width="12" height="12" rx="2" fill="#FFFFFF" opacity="0.85"/><text x="1720" y="256" font-size="9" fill="#38455A" text-anchor="middle">N</text><polyline points="1320,474 1742,474" fill="none" stroke="#556170" stroke-width="1.2" stroke-linejoin="round" opacity="0.9"/><polyline points="444,326 538,326 538,354 1050,354 1050,342 1148,342" fill="none" stroke="#38455A" stroke-width="2.0" stroke-linejoin="round" opacity="0.9"/><rect x="1044" y="345" width="12" height="12" rx="2" fill="#FFFFFF" opacity="0.85"/><text x="1050" y="354" font-size="9" fill="#38455A" text-anchor="middle">3</text><polyline points="444,492 490,492 490,624 1126,624 1126,444 1148,444" fill="none" stroke="#38455A" stroke-width="2.0" stroke-linejoin="round" opacity="0.9"/><rect x="1120" y="615" width="12" height="12" rx="2" fill="#FFFFFF" opacity="0.85"/><text x="1126" y="624" font-size="9" fill="#38455A" text-anchor="middle">2</text><polyline points="444,162 562,162 562,192 584,192" fill="none" stroke="#38455A" stroke-width="2.0" stroke-linejoin="round" opacity="0.9"/><rect x="523" y="183" width="78" height="12" rx="2" fill="#FFFFFF" opacity="0.85"/><text x="562" y="192" font-size="9" fill="#38455A" text-anchor="middle">N*DATA_WIDTH</text><polyline points="756,192 866,192" fill="none" stroke="#38455A" stroke-width="2.0" stroke-linejoin="round" opacity="0.9"/><rect x="827" y="183" width="78" height="12" rx="2" fill="#FFFFFF" opacity="0.85"/><text x="866" y="192" font-size="9" fill="#38455A" text-anchor="middle">N*DATA_WIDTH</text><polyline points="444,222 584,222" fill="none" stroke="#556170" stroke-width="1.2" stroke-linejoin="round" opacity="0.9"/><polyline points="444,402 562,402 562,432 584,432" fill="none" stroke="#38455A" stroke-width="2.0" stroke-linejoin="round" opacity="0.9"/><rect x="523" y="423" width="78" height="12" rx="2" fill="#FFFFFF" opacity="0.85"/><text x="562" y="432" font-size="9" fill="#38455A" text-anchor="middle">N*DATA_WIDTH</text><polyline points="756,462 866,462" fill="none" stroke="#38455A" stroke-width="2.0" stroke-linejoin="round" opacity="0.9"/><rect x="827" y="453" width="78" height="12" rx="2" fill="#FFFFFF" opacity="0.85"/><text x="866" y="462" font-size="9" fill="#38455A" text-anchor="middle">N*DATA_WIDTH</text><polyline points="444,522 562,522 562,474 584,474" fill="none" stroke="#556170" stroke-width="1.2" stroke-linejoin="round" opacity="0.9"/><polyline points="1602,312 1742,312" fill="none" stroke="#38455A" stroke-width="2.0" stroke-linejoin="round" opacity="0.9"/><rect x="1706" y="303" width="72" height="12" rx="2" fill="#FFFFFF" opacity="0.85"/><text x="1742" y="312" font-size="9" fill="#38455A" text-anchor="middle">N*ACC_WIDTH</text><polyline points="444,462 514,462 514,658 1408,658 1408,354 1430,354" fill="none" stroke="#556170" stroke-width="1.2" stroke-linejoin="round" opacity="0.9"/><polyline points="444,192 466,192 466,136 844,136 844,162 866,162" fill="none" stroke="#556170" stroke-width="1.2" stroke-linejoin="round" opacity="0.9"/><polyline points="444,552 466,552 466,594 844,594 844,504 866,504" fill="none" stroke="#556170" stroke-width="1.2" stroke-linejoin="round" opacity="0.9"/><rect x="22" y="730.0" width="250" height="132" rx="4" fill="#FFFFFF" stroke="#9AA6B4"/><text x="32" y="748.0" font-weight="bold" font-size="12" fill="#333">Legend</text><line x1="34" y1="764.0" x2="66" y2="764.0" stroke="#38455A" stroke-width="2.0"/><text x="74" y="768.0" font-size="10" fill="#333">bus (multi-bit, width labelled)</text><line x1="34" y1="786.0" x2="66" y2="786.0" stroke="#556170" stroke-width="1.2"/><text x="74" y="790.0" font-size="10" fill="#333">control (1-bit)</text><line x1="34" y1="808.0" x2="66" y2="808.0" stroke="#557A60" stroke-width="1.6"/><text x="74" y="812.0" font-size="10" fill="#333">bidirectional</text><circle cx="50" cy="830.0" r="4" fill="#9AA0A6" stroke="#5F6368"/><text x="74" y="834.0" font-size="10" fill="#333">clk / reset (implicit, not routed)</text></svg>