<svg xmlns="http://www.w3.org/2000/svg" width="1904" height="884" font-family="Helvetica"><rect width="1904" height="884" fill="white"/><rect x="22" y="22" width="1860" height="686" rx="3" fill="#EFEDF6" stroke="#5F5488" stroke-width="1.3"/><text x="30" y="38" font-weight="bold" font-size="14" fill="#5F5488">spinnCore_dense</text><circle cx="22" cy="84" r="2.5" fill="#5F5488"/><text x="44" y="80" font-size="12" fill="#333">a_bus_i</text><circle cx="22" cy="114" r="2.5" fill="#5F5488"/><text x="44" y="110" font-size="12" fill="#333">bypass_rotator0_i</text><circle cx="22" cy="144" r="2.5" fill="#5F5488"/><text x="44" y="140" font-size="12" fill="#333">a_skew_bank_en_i</text><circle cx="22" cy="252" r="2.5" fill="#5F5488"/><text x="44" y="248" font-size="12" fill="#333">mac_en_bus_i</text><circle cx="22" cy="282" r="2.5" fill="#5F5488"/><text x="44" y="278" font-size="12" fill="#333">acc_clr_bus_i</text><circle cx="22" cy="315" r="2.5" fill="#5F5488"/><text x="44" y="311" font-size="12" fill="#333">b_bus_i</text><circle cx="22" cy="345" r="2.5" fill="#5F5488"/><text x="44" y="341" font-size="12" fill="#333">acc_out_en_bus_i</text><circle cx="22" cy="375" r="2.5" fill="#5F5488"/><text x="44" y="371" font-size="12" fill="#333">r_skew_bank_en_i</text><circle cx="22" cy="435" r="2.5" fill="#5F5488"/><text x="44" y="431" font-size="12" fill="#333">b_skew_bank_en_i</text><circle cx="22" cy="465" r="2.5" fill="#5F5488"/><text x="44" y="461" font-size="12" fill="#333">bypass_rotator1_i</text><circle cx="22" cy="630" r="2.5" fill="#5F6368"/><text x="44" y="626" font-size="12" fill="#5F6368">reset_n_i</text><circle cx="22" cy="660" r="2.5" fill="#5F6368"/><text x="44" y="656" font-size="12" fill="#5F6368">clk_i</text><circle cx="1882" cy="281" r="2.5" fill="#5F5488"/><text x="1860" y="277" font-size="12" text-anchor="end" fill="#333">r_bus_o</text><circle cx="1882" cy="363" r="2.5" fill="#5F5488"/><text x="1860" y="359" font-size="12" text-anchor="end" fill="#333">r_valid_bus_o</text><circle cx="1882" cy="497" r="2.5" fill="#5F5488"/><text x="1860" y="493" font-size="12" text-anchor="end" fill="#333">busy_o</text><rect x="162" y="298" width="172" height="134" rx="3" fill="#ECF2ED" stroke="#557A60" stroke-width="1.3"/><text x="170" y="314" font-weight="bold" font-size="14" fill="#557A60">spinnCore_dense_regfile</text><circle cx="334" cy="342" r="2.5" fill="#557A60"/><text x="312" y="338" font-size="12" text-anchor="end" fill="#333">data_type_o</text><circle cx="334" cy="384" r="2.5" fill="#557A60"/><text x="312" y="380" font-size="12" text-anchor="end" fill="#333">rounding_mode_o</text><rect x="444" y="70" width="1298" height="590" rx="3" fill="#EDF1F6" stroke="#41617F" stroke-width="1.3"/><text x="452" y="86" font-weight="bold" font-size="14" fill="#41617F">spinnCore</text><circle cx="444" cy="114" r="2.5" fill="#41617F"/><text x="466" y="110" font-size="12" fill="#333">a_bus_i</text><circle cx="444" cy="144" r="2.5" fill="#41617F"/><text x="466" y="140" font-size="12" fill="#333">bypass_rotator0_i</text><circle cx="444" cy="174" r="2.5" fill="#41617F"/><text x="466" y="170" font-size="12" fill="#333">a_skew_bank_en_i</text><circle cx="444" cy="250" r="2.5" fill="#41617F"/><text x="466" y="246" font-size="12" fill="#333">acc_clr_bus_i</text><circle cx="444" cy="280" r="2.5" fill="#41617F"/><text x="466" y="276" font-size="12" fill="#333">mac_en_bus_i</text><circle cx="444" cy="312" r="2.5" fill="#41617F"/><text x="466" y="308" font-size="12" fill="#333">data_type_i</text><circle cx="444" cy="342" r="2.5" fill="#41617F"/><text x="466" y="338" font-size="12" fill="#333">b_bus_i</text><circle cx="444" cy="372" r="2.5" fill="#41617F"/><text x="466" y="368" font-size="12" fill="#333">acc_out_en_bus_i</text><circle cx="444" cy="402" r="2.5" fill="#41617F"/><text x="466" y="398" font-size="12" fill="#333">r_skew_bank_en_i</text><circle cx="444" cy="432" r="2.5" fill="#41617F"/><text x="466" y="428" font-size="12" fill="#333">rounding_mode_i</text><circle cx="444" cy="462" r="2.5" fill="#41617F"/><text x="466" y="458" font-size="12" fill="#333">b_skew_bank_en_i</text><circle cx="444" cy="492" r="2.5" fill="#41617F"/><text x="466" y="488" font-size="12" fill="#333">bypass_rotator1_i</text><circle cx="444" cy="582" r="2.5" fill="#5F6368"/><text x="466" y="578" font-size="12" fill="#5F6368">reset_n_i</text><circle cx="444" cy="612" r="2.5" fill="#5F6368"/><text x="466" y="608" font-size="12" fill="#5F6368">clk_i</text><circle cx="1742" cy="287" r="2.5" fill="#41617F"/><text x="1720" y="283" font-size="12" text-anchor="end" fill="#333">r_bus_o</text><circle cx="1742" cy="363" r="2.5" fill="#41617F"/><text x="1720" y="359" font-size="12" text-anchor="end" fill="#333">r_valid_bus_o</text><circle cx="1742" cy="491" r="2.5" fill="#41617F"/><text x="1720" y="487" font-size="12" text-anchor="end" fill="#333">busy_o</text><rect x="1148" y="208" width="172" height="314" rx="3" fill="#EDF1F6" stroke="#41617F" stroke-width="1.3"/><text x="1156" y="224" font-weight="bold" font-size="14" fill="#41617F">spinnArray</text><circle cx="1148" cy="252" r="2.5" fill="#41617F"/><text x="1170" y="248" font-size="12" fill="#333">a_bus_i</text><circle cx="1148" cy="282" r="2.5" fill="#41617F"/><text x="1170" y="278" font-size="12" fill="#333">acc_clr_bus_i</text><circle cx="1148" cy="312" r="2.5" fill="#41617F"/><text x="1170" y="308" font-size="12" fill="#333">mac_en_bus_i</text><circle cx="1148" cy="342" r="2.5" fill="#41617F"/><text x="1170" y="338" font-size="12" fill="#333">data_type_i</text><circle cx="1148" cy="372" r="2.5" fill="#41617F"/><text x="1170" y="368" font-size="12" fill="#333">acc_out_en_bus_i</text><circle cx="1148" cy="414" r="2.5" fill="#41617F"/><text x="1170" y="410" font-size="12" fill="#333">b_bus_i</text><circle cx="1148" cy="444" r="2.5" fill="#41617F"/><text x="1170" y="440" font-size="12" fill="#333">rounding_mode_i</text><circle cx="1148" cy="474" r="2.5" fill="#5F6368"/><text x="1170" y="470" font-size="12" fill="#5F6368">clk_i</text><circle cx="1320" cy="312" r="2.5" fill="#41617F"/><text x="1298" y="308" font-size="12" text-anchor="end" fill="#333">r_bus_o</text><circle cx="1320" cy="363" r="2.5" fill="#41617F"/><text x="1298" y="359" font-size="12" text-anchor="end" fill="#333">r_valid_bus_o</text><circle cx="1320" cy="474" r="2.5" fill="#41617F"/><text x="1298" y="470" font-size="12" text-anchor="end" fill="#333">busy_o</text><rect x="584" y="148" width="172" height="194" rx="3" fill="#F5F0E8" stroke="#9A7A45" stroke-width="1.3"/><text x="592" y="164" font-weight="bold" font-size="14" fill="#9A7A45">skew_bank_0</text><text x="592" y="175" font-style="italic" font-size="9" fill="#666">skew_bank</text><circle cx="584" cy="192" r="2.5" fill="#9A7A45"/><text x="606" y="188" font-size="12" fill="#333">d_bus_i</text><circle cx="584" cy="222" r="2.5" fill="#9A7A45"/><text x="606" y="218" font-size="12" fill="#333">en_i</text><circle cx="584" cy="264" r="2.5" fill="#5F6368"/><text x="606" y="260" font-size="12" fill="#5F6368">reset_n_i</text><circle cx="584" cy="294" r="2.5" fill="#5F6368"/><text x="606" y="290" font-size="12" fill="#5F6368">clk_i</text><circle cx="756" cy="192" r="2.5" fill="#9A7A45"/><text x="734" y="188" font-size="12" text-anchor="end" fill="#333">d_bus_o</text><rect x="584" y="388" width="172" height="194" rx="3" fill="#F5F0E8" stroke="#9A7A45" stroke-width="1.3"/><text x="592" y="404" font-weight="bold" font-size="14" fill="#9A7A45">skew_bank_1</text><text x="592" y="415" font-style="italic" font-size="9" fill="#666">skew_bank</text><circle cx="584" cy="432" r="2.5" fill="#9A7A45"/><text x="606" y="428" font-size="12" fill="#333">d_bus_i</text><circle cx="584" cy="462" r="2.5" fill="#9A7A45"/><text x="606" y="458" font-size="12" fill="#333">en_i</text><circle cx="584" cy="504" r="2.5" fill="#5F6368"/><text x="606" y="500" font-size="12" fill="#5F6368">reset_n_i</text><circle cx="584" cy="534" r="2.5" fill="#5F6368"/><text x="606" y="530" font-size="12" fill="#5F6368">clk_i</text><circle cx="756" cy="462" r="2.5" fill="#9A7A45"/><text x="734" y="458" font-size="12" text-anchor="end" fill="#333">d_bus_o</text><rect x="1430" y="268" width="172" height="194" rx="3" fill="#F5F0E8" stroke="#9A7A45" stroke-width="1.3"/><text x="1438" y="284" font-weight="bold" font-size="14" fill="#9A7A45">skew_bank_2</text><text x="1438" y="295" font-style="italic" font-size="9" fill="#666">skew_bank</text><circle cx="1430" cy="312" r="2.5" fill="#9A7A45"/><text x="1452" y="308" font-size="12" fill="#333">d_bus_i</text><circle cx="1430" cy="354" r="2.5" fill="#9A7A45"/><text x="1452" y="350" font-size="12" fill="#333">en_i</text><circle cx="1430" cy="384" r="2.5" fill="#5F6368"/><text x="1452" y="380" font-size="12" fill="#5F6368">reset_n_i</text><circle cx="1430" cy="414" r="2.5" fill="#5F6368"/><text x="1452" y="410" font-size="12" fill="#5F6368">clk_i</text><circle cx="1602" cy="312" r="2.5" fill="#9A7A45"/><text x="1580" y="308" font-size="12" text-anchor="end" fill="#333">d_bus_o</text><rect x="866" y="118" width="172" height="224" rx="3" fill="#F5F0E8" stroke="#9A7A45" stroke-width="1.3"/><text x="874" y="134" font-weight="bold" font-size="14" fill="#9A7A45">vector_rotator_0</text><text x="874" y="145" font-style="italic" font-size="9" fill="#666">vector_rotator</text><circle cx="866" cy="162" r="2.5" fill="#9A7A45"/><text x="888" y="158" font-size="12" fill="#333">bypass_i</text><circle cx="866" cy="192" r="2.5" fill="#9A7A45"/><text x="888" y="188" font-size="12" fill="#333">data_i</text><circle cx="866" cy="234" r="2.5" fill="#9A7A45"/><text x="888" y="230" font-size="12" fill="#333">valid_i</text><circle cx="866" cy="264" r="2.5" fill="#5F6368"/><text x="888" y="260" font-size="12" fill="#5F6368">reset_n_i</text><circle cx="866" cy="294" r="2.5" fill="#5F6368"/><text x="888" y="290" font-size="12" fill="#5F6368">clk_i</text><circle cx="1038" cy="252" r="2.5" fill="#9A7A45"/><text x="1016" y="248" font-size="12" text-anchor="end" fill="#333">data_o</text><rect x="866" y="388" width="172" height="224" rx="3" fill="#F5F0E8" stroke="#9A7A45" stroke-width="1.3"/><text x="874" y="404" font-weight="bold" font-size="14" fill="#9A7A45">vector_rotator_1</text><text x="874" y="415" font-style="italic" font-size="9" fill="#666">vector_rotator</text><circle cx="866" cy="432" r="2.5" fill="#9A7A45"/><text x="888" y="428" font-size="12" fill="#333">valid_i</text><circle cx="866" cy="462" r="2.5" fill="#9A7A45"/><text x="888" y="458" font-size="12" fill="#333">data_i</text><circle cx="866" cy="492" r="2.5" fill="#9A7A45"/><text x="888" y="488" font-size="12" fill="#333">bypass_i</text><circle cx="866" cy="534" r="2.5" fill="#5F6368"/><text x="888" y="530" font-size="12" fill="#5F6368">reset_n_i</text><circle cx="866" cy="564" r="2.5" fill="#5F6368"/><text x="888" y="560" font-size="12" fill="#5F6368">clk_i</text><circle cx="1038" cy="432" r="2.5" fill="#9A7A45"/><text x="1016" y="428" font-size="12" text-anchor="end" fill="#333">data_o</text><polyline points="334,342 356,342 356,312 444,312" fill="none" stroke="#38455A" stroke-width="2.0" stroke-linejoin="round" opacity="0.9"/><rect x="350" y="303" width="12" height="12" rx="2" fill="#FFFFFF" opacity="0.85"/><text x="356" y="312" font-size="9" fill="#38455A" text-anchor="middle">3</text><polyline points="334,384 356,384 356,432 444,432" fill="none" stroke="#38455A" stroke-width="2.0" stroke-linejoin="round" opacity="0.9"/><rect x="350" y="423" width="12" height="12" rx="2" fill="#FFFFFF" opacity="0.85"/><text x="356" y="432" font-size="9" fill="#38455A" text-anchor="middle">2</text><polyline points="22,84 44,84 44,114 444,114" fill="none" stroke="#38455A" stroke-width="2.0" stroke-linejoin="round" opacity="0.9"/><rect x="5" y="105" width="78" height="12" rx="2" fill="#FFFFFF" opacity="0.85"/><text x="44" y="114" font-size="9" fill="#38455A" text-anchor="middle">N*DATA_WIDTH</text><polyline points="22,144 44,144 44,174 444,174" fill="none" stroke="#556170" stroke-width="1.2" stroke-linejoin="round" opacity="0.9"/><polyline points="22,315 44,315 44,286 346,286 346,342 444,342" fill="none" stroke="#38455A" stroke-width="2.0" stroke-linejoin="round" opacity="0.9"/><rect x="307" y="277" width="78" height="12" rx="2" fill="#FFFFFF" opacity="0.85"/><text x="346" y="286" font-size="9" fill="#38455A" text-anchor="middle">N*DATA_WIDTH</text><polyline points="22,435 44,435 44,462 444,462" fill="none" stroke="#556170" stroke-width="1.2" stroke-linejoin="round" opacity="0.9"/><polyline points="22,252 44,252 44,280 444,280" fill="none" stroke="#556170" stroke-width="1.2" stroke-linejoin="round" opacity="0.9"/><polyline points="22,282 44,282 44,250 444,250" fill="none" stroke="#556170" stroke-width="1.2" stroke-linejoin="round" opacity="0.9"/><polyline points="22,345 70,345 70,282 378,282 378,372 444,372" fill="none" stroke="#556170" stroke-width="1.2" stroke-linejoin="round" opacity="0.9"/><polyline points="22,114 44,114 44,144 444,144" fill="none" stroke="#556170" stroke-width="1.2" stroke-linejoin="round" opacity="0.9"/><polyline points="22,465 44,465 44,492 444,492" fill="none" stroke="#556170" stroke-width="1.2" stroke-linejoin="round" opacity="0.9"/><polyline points="1742,287 1764,287 1764,281 1882,281" fill="none" stroke="#38455A" stroke-width="2.0" stroke-linejoin="round" opacity="0.9"/><rect x="1728" y="272" width="72" height="12" rx="2" fill="#FFFFFF" opacity="0.85"/><text x="1764" y="281" font-size="9" fill="#38455A" text-anchor="middle">N*ACC_WIDTH</text><polyline points="1742,363 1882,363" fill="none" stroke="#38455A" stroke-width="2.0" stroke-linejoin="round" opacity="0.9"/><rect x="1876" y="354" width="12" height="12" rx="2" fill="#FFFFFF" opacity="0.85"/><text x="1882" y="363" font-size="9" fill="#38455A" text-anchor="middle">N</text><polyline points="22,375 44,375 44,444 422,444 422,402 444,402" fill="none" stroke="#556170" stroke-width="1.2" stroke-linejoin="round" opacity="0.9"/><polyline points="1742,491 1764,491 1764,497 1882,497" fill="none" stroke="#556170" stroke-width="1.2" stroke-linejoin="round" opacity="0.9"/><polyline points="1038,252 1148,252" fill="none" stroke="#38455A" stroke-width="2.0" stroke-linejoin="round" opacity="0.9"/><rect x="1109" y="243" width="78" height="12" rx="2" fill="#FFFFFF" opacity="0.85"/><text x="1148" y="252" font-size="9" fill="#38455A" text-anchor="middle">N*DATA_WIDTH</text><polyline points="1038,432 1060,432 1060,414 1148,414" fill="none" stroke="#38455A" stroke-width="2.0" stroke-linejoin="round" opacity="0.9"/><rect x="1021" y="405" width="78" height="12" rx="2" fill="#FFFFFF" opacity="0.85"/><text x="1060" y="414" font-size="9" fill="#38455A" text-anchor="middle">N*DATA_WIDTH</text><polyline points="444,280 466,280 466,363 1050,363 1050,312 1148,312" fill="none" stroke="#556170" stroke-width="1.2" stroke-linejoin="round" opacity="0.9"/><polyline points="444,280 490,280 490,372 844,372 844,234 866,234" fill="none" stroke="#556170" stroke-width="1.2" stroke-linejoin="round" opacity="0.9"/><polyline points="444,280 514,280 514,376 844,376 844,432 866,432" fill="none" stroke="#556170" stroke-width="1.2" stroke-linejoin="round" opacity="0.9"/><polyline points="444,250 490,250 490,106 1126,106 1126,282 1148,282" fill="none" stroke="#556170" stroke-width="1.2" stroke-linejoin="round" opacity="0.9"/><polyline points="444,372 1148,372" fill="none" stroke="#556170" stroke-width="1.2" stroke-linejoin="round" opacity="0.9"/><polyline points="1320,312 1430,312" fill="none" stroke="#38455A" stroke-width="2.0" stroke-linejoin="round" opacity="0.9"/><rect x="1394" y="303" width="72" height="12" rx="2" fill="#FFFFFF" opacity="0.85"/><text x="1430" y="312" font-size="9" fill="#38455A" text-anchor="middle">N*ACC_WIDTH</text><polyline points="1320,363 1342,363 1342,256 1720,256 1720,363 1742,363" fill="none" stroke="#38455A" stroke-width="2.0" stroke-linejoin="round" opacity="0.9"/><rect x="1714" y="247" width="12" height="12" rx="2" fill="#FFFFFF" opacity="0.85"/><text x="1720" y="256" font-size="9" fill="#38455A" text-anchor="middle">N</text><polyline points="1320,474 1342,474 1342,491 1742,491" fill="none" stroke="#556170" stroke-width="1.2" stroke-linejoin="round" opacity="0.9"/><polyline points="444,312 572,312 572,354 1126,354 1126,342 1148,342" fill="none" stroke="#38455A" stroke-width="2.0" stroke-linejoin="round" opacity="0.9"/><rect x="1120" y="345" width="12" height="12" rx="2" fill="#FFFFFF" opacity="0.85"/><text x="1126" y="354" font-size="9" fill="#38455A" text-anchor="middle">3</text><polyline points="444,432 572,432 572,372 1126,372 1126,444 1148,444" fill="none" stroke="#38455A" stroke-width="2.0" stroke-linejoin="round" opacity="0.9"/><rect x="1120" y="363" width="12" height="12" rx="2" fill="#FFFFFF" opacity="0.85"/><text x="1126" y="372" font-size="9" fill="#38455A" text-anchor="middle">2</text><polyline points="444,114 562,114 562,192 584,192" fill="none" stroke="#38455A" stroke-width="2.0" stroke-linejoin="round" opacity="0.9"/><rect x="523" y="183" width="78" height="12" rx="2" fill="#FFFFFF" opacity="0.85"/><text x="562" y="192" font-size="9" fill="#38455A" text-anchor="middle">N*DATA_WIDTH</text><polyline points="756,192 866,192" fill="none" stroke="#38455A" stroke-width="2.0" stroke-linejoin="round" opacity="0.9"/><rect x="827" y="183" width="78" height="12" rx="2" fill="#FFFFFF" opacity="0.85"/><text x="866" y="192" font-size="9" fill="#38455A" text-anchor="middle">N*DATA_WIDTH</text><polyline points="444,174 466,174 466,222 584,222" fill="none" stroke="#556170" stroke-width="1.2" stroke-linejoin="round" opacity="0.9"/><polyline points="444,342 562,342 562,432 584,432" fill="none" stroke="#38455A" stroke-width="2.0" stroke-linejoin="round" opacity="0.9"/><rect x="523" y="423" width="78" height="12" rx="2" fill="#FFFFFF" opacity="0.85"/><text x="562" y="432" font-size="9" fill="#38455A" text-anchor="middle">N*DATA_WIDTH</text><polyline points="756,462 866,462" fill="none" stroke="#38455A" stroke-width="2.0" stroke-linejoin="round" opacity="0.9"/><rect x="827" y="453" width="78" height="12" rx="2" fill="#FFFFFF" opacity="0.85"/><text x="866" y="462" font-size="9" fill="#38455A" text-anchor="middle">N*DATA_WIDTH</text><polyline points="444,462 584,462" fill="none" stroke="#556170" stroke-width="1.2" stroke-linejoin="round" opacity="0.9"/><polyline points="1602,312 1624,312 1624,287 1742,287" fill="none" stroke="#38455A" stroke-width="2.0" stroke-linejoin="round" opacity="0.9"/><rect x="1588" y="278" width="72" height="12" rx="2" fill="#FFFFFF" opacity="0.85"/><text x="1624" y="287" font-size="9" fill="#38455A" text-anchor="middle">N*ACC_WIDTH</text><polyline points="444,402 466,402 466,624 1408,624 1408,354 1430,354" fill="none" stroke="#556170" stroke-width="1.2" stroke-linejoin="round" opacity="0.9"/><polyline points="444,144 466,144 466,136 844,136 844,162 866,162" fill="none" stroke="#556170" stroke-width="1.2" stroke-linejoin="round" opacity="0.9"/><polyline points="444,492 466,492 466,594 844,594 844,492 866,492" fill="none" stroke="#556170" stroke-width="1.2" stroke-linejoin="round" opacity="0.9"/><rect x="22" y="730.0" width="250" height="132" rx="4" fill="#FFFFFF" stroke="#9AA6B4"/><text x="32" y="748.0" font-weight="bold" font-size="12" fill="#333">Legend</text><line x1="34" y1="764.0" x2="66" y2="764.0" stroke="#38455A" stroke-width="2.0"/><text x="74" y="768.0" font-size="10" fill="#333">bus (multi-bit, width labelled)</text><line x1="34" y1="786.0" x2="66" y2="786.0" stroke="#556170" stroke-width="1.2"/><text x="74" y="790.0" font-size="10" fill="#333">control (1-bit)</text><line x1="34" y1="808.0" x2="66" y2="808.0" stroke="#557A60" stroke-width="1.6"/><text x="74" y="812.0" font-size="10" fill="#333">bidirectional</text><circle cx="50" cy="830.0" r="4" fill="#9AA0A6" stroke="#5F6368"/><text x="74" y="834.0" font-size="10" fill="#333">clk / reset (implicit, not routed)</text></svg>