<svg xmlns="http://www.w3.org/2000/svg" width="1050" height="414" font-family="Helvetica" font-size="11">
<rect width="1050" height="414" fill="#ffffff"/>
<rect x="280" y="40" width="150" height="58" rx="2" fill="#FCE8E6" stroke="#B5413B"/>
<text x="355.0" y="56" text-anchor="middle" font-weight="bold">common_sync_data</text>
<text x="355.0" y="67" text-anchor="middle" font-style="italic" fill="#555">common_sync</text>
<rect x="500" y="40" width="150" height="58" rx="2" fill="#FCE8E6" stroke="#B5413B"/>
<text x="575.0" y="56" text-anchor="middle" font-weight="bold">common_sync_valid</text>
<text x="575.0" y="67" text-anchor="middle" font-style="italic" fill="#555">common_sync</text>
<rect x="280" y="132" width="150" height="58" rx="2" fill="#FCE8E6" stroke="#B5413B"/>
<text x="355.0" y="148" text-anchor="middle" font-weight="bold">common_sync_gpio1</text>
<text x="355.0" y="159" text-anchor="middle" font-style="italic" fill="#555">common_sync</text>
<rect x="500" y="132" width="150" height="58" rx="2" fill="#FCE8E6" stroke="#B5413B"/>
<text x="575.0" y="148" text-anchor="middle" font-weight="bold">common_sync_gpio2</text>
<text x="575.0" y="159" text-anchor="middle" font-style="italic" fill="#555">common_sync</text>
<rect x="280" y="224" width="150" height="58" rx="2" fill="#FCE8E6" stroke="#B5413B"/>
<text x="355.0" y="240" text-anchor="middle" font-weight="bold">common_sync_tx0</text>
<text x="355.0" y="251" text-anchor="middle" font-style="italic" fill="#555">common_sync</text>
<rect x="500" y="224" width="150" height="58" rx="2" fill="#FCE8E6" stroke="#B5413B"/>
<text x="575.0" y="240" text-anchor="middle" font-weight="bold">common_sync_tx1</text>
<text x="575.0" y="251" text-anchor="middle" font-style="italic" fill="#555">common_sync</text>
<rect x="280" y="316" width="150" height="58" rx="2" fill="#FCE8E6" stroke="#B5413B"/>
<text x="355.0" y="332" text-anchor="middle" font-weight="bold">common_sync_tx2</text>
<text x="355.0" y="343" text-anchor="middle" font-style="italic" fill="#555">common_sync</text>
</svg>