<svg xmlns="http://www.w3.org/2000/svg" width="1898" height="4850" font-family="Helvetica"><rect width="1898" height="4850" fill="white"/><rect x="22" y="22" width="1854" height="4652" rx="3" fill="#EFEDF6" stroke="#5F5488" stroke-width="1.3"/><text x="30" y="38" font-weight="bold" font-size="14" fill="#5F5488">top</text><circle cx="22" cy="66" r="2.5" fill="#5F5488"/><text x="44" y="62" font-size="12" fill="#333">resetn_i</text><circle cx="22" cy="826" r="2.5" fill="#5F5488"/><text x="44" y="822" font-size="12" fill="#333">rf_addr_i</text><circle cx="22" cy="1586" r="2.5" fill="#5F5488"/><text x="44" y="1582" font-size="12" fill="#333">rf_w_data_i</text><circle cx="22" cy="2346" r="2.5" fill="#5F5488"/><text x="44" y="2342" font-size="12" fill="#333">rf_en_i</text><circle cx="22" cy="3106" r="2.5" fill="#5F6368"/><text x="44" y="3102" font-size="12" fill="#5F6368">clk_core_i</text><circle cx="22" cy="3866" r="2.5" fill="#5F6368"/><text x="44" y="3862" font-size="12" fill="#5F6368">clk_ref_i</text><circle cx="22" cy="4626" r="2.5" fill="#5F6368"/><text x="44" y="4622" font-size="12" fill="#5F6368">reset_n_ref_i</text><circle cx="1876" cy="66" r="2.5" fill="#5F5488"/><text x="1854" y="62" font-size="12" text-anchor="end" fill="#333">rf_r_data_o</text><rect x="162" y="70" width="1292" height="3296" rx="3" fill="#EDF1F6" stroke="#41617F" stroke-width="1.3"/><text x="170" y="86" font-weight="bold" font-size="14" fill="#41617F">mgmt</text><circle cx="162" cy="114" r="2.5" fill="#41617F"/><text x="184" y="110" font-size="12" fill="#333">rf_addr_i</text><circle cx="162" cy="572" r="2.5" fill="#41617F"/><text x="184" y="568" font-size="12" fill="#333">rf_w_data_i</text><circle cx="162" cy="1029" r="2.5" fill="#41617F"/><text x="184" y="1025" font-size="12" fill="#333">rf_en_i</text><circle cx="162" cy="1487" r="2.5" fill="#41617F"/><text x="184" y="1483" font-size="12" fill="#333">status_i</text><circle cx="162" cy="1945" r="2.5" fill="#41617F"/><text x="184" y="1941" font-size="12" fill="#333">status_test_i</text><circle cx="162" cy="2403" r="2.5" fill="#5F6368"/><text x="184" y="2399" font-size="12" fill="#5F6368">clk_o</text><circle cx="162" cy="2860" r="2.5" fill="#5F6368"/><text x="184" y="2856" font-size="12" fill="#5F6368">clk_src_i</text><circle cx="162" cy="3318" r="2.5" fill="#5F6368"/><text x="184" y="3314" font-size="12" fill="#5F6368">reset_n_ref_i</text><circle cx="1454" cy="114" r="2.5" fill="#41617F"/><text x="1432" y="110" font-size="12" text-anchor="end" fill="#333">rf_r_data_o</text><circle cx="1454" cy="514" r="2.5" fill="#41617F"/><text x="1432" y="510" font-size="12" text-anchor="end" fill="#333">en_invtest_o</text><circle cx="1454" cy="915" r="2.5" fill="#41617F"/><text x="1432" y="911" font-size="12" text-anchor="end" fill="#333">config_o</text><circle cx="1454" cy="1316" r="2.5" fill="#41617F"/><text x="1432" y="1312" font-size="12" text-anchor="end" fill="#333">config2_o</text><circle cx="1454" cy="1716" r="2.5" fill="#41617F"/><text x="1432" y="1712" font-size="12" text-anchor="end" fill="#333">config3_o</text><circle cx="1454" cy="2116" r="2.5" fill="#41617F"/><text x="1432" y="2112" font-size="12" text-anchor="end" fill="#333">data_o</text><circle cx="1454" cy="2517" r="2.5" fill="#41617F"/><text x="1432" y="2513" font-size="12" text-anchor="end" fill="#333">config_test0_o</text><circle cx="1454" cy="2918" r="2.5" fill="#41617F"/><text x="1432" y="2914" font-size="12" text-anchor="end" fill="#333">config_test___1_o</text><circle cx="1454" cy="3318" r="2.5" fill="#41617F"/><text x="1432" y="3314" font-size="12" text-anchor="end" fill="#333">config_test______2_o</text><rect x="582" y="118" width="452" height="770" rx="3" fill="#EDF1F6" stroke="#41617F" stroke-width="1.3"/><text x="590" y="134" font-weight="bold" font-size="14" fill="#41617F">mgmt_regfile</text><circle cx="582" cy="162" r="2.5" fill="#41617F"/><text x="604" y="158" font-size="12" fill="#333">rf_addr_i</text><circle cx="582" cy="275" r="2.5" fill="#41617F"/><text x="604" y="271" font-size="12" fill="#333">rf_w_data_i</text><circle cx="582" cy="388" r="2.5" fill="#41617F"/><text x="604" y="384" font-size="12" fill="#333">rf_en_i</text><circle cx="582" cy="501" r="2.5" fill="#41617F"/><text x="604" y="497" font-size="12" fill="#333">status_i</text><circle cx="582" cy="614" r="2.5" fill="#41617F"/><text x="604" y="610" font-size="12" fill="#333">status_test_i</text><circle cx="582" cy="727" r="2.5" fill="#5F6368"/><text x="604" y="723" font-size="12" fill="#5F6368">clk_ref_i</text><circle cx="582" cy="840" r="2.5" fill="#5F6368"/><text x="604" y="836" font-size="12" fill="#5F6368">reset_n_ref_i</text><circle cx="1034" cy="162" r="2.5" fill="#41617F"/><text x="1012" y="158" font-size="12" text-anchor="end" fill="#333">rf_r_data_o</text><circle cx="1034" cy="259" r="2.5" fill="#41617F"/><text x="1012" y="255" font-size="12" text-anchor="end" fill="#333">config_o</text><circle cx="1034" cy="356" r="2.5" fill="#41617F"/><text x="1012" y="352" font-size="12" text-anchor="end" fill="#333">config2_o</text><circle cx="1034" cy="453" r="2.5" fill="#41617F"/><text x="1012" y="449" font-size="12" text-anchor="end" fill="#333">config3_o</text><circle cx="1034" cy="549" r="2.5" fill="#41617F"/><text x="1012" y="545" font-size="12" text-anchor="end" fill="#333">data_o</text><circle cx="1034" cy="646" r="2.5" fill="#41617F"/><text x="1012" y="642" font-size="12" text-anchor="end" fill="#333">config_test0_o</text><circle cx="1034" cy="743" r="2.5" fill="#41617F"/><text x="1012" y="739" font-size="12" text-anchor="end" fill="#333">config_test___1_o</text><circle cx="1034" cy="840" r="2.5" fill="#41617F"/><text x="1012" y="836" font-size="12" text-anchor="end" fill="#333">config_test______2_o</text><rect x="722" y="166" width="172" height="134" rx="3" fill="#F5F0E8" stroke="#9A7A45" stroke-width="1.3"/><text x="730" y="182" font-weight="bold" font-size="14" fill="#9A7A45">common_sync_1</text><text x="730" y="193" font-style="italic" font-size="9" fill="#666">common_sync</text><circle cx="722" cy="210" r="2.5" fill="#9A7A45"/><text x="744" y="206" font-size="12" fill="#333">resetn_i</text><circle cx="722" cy="252" r="2.5" fill="#5F6368"/><text x="744" y="248" font-size="12" fill="#5F6368">clk_i</text><rect x="722" y="346" width="172" height="134" rx="3" fill="#F5F0E8" stroke="#9A7A45" stroke-width="1.3"/><text x="730" y="362" font-weight="bold" font-size="14" fill="#9A7A45">common_sync_2</text><text x="730" y="373" font-style="italic" font-size="9" fill="#666">common_sync</text><circle cx="722" cy="390" r="2.5" fill="#9A7A45"/><text x="744" y="386" font-size="12" fill="#333">resetn_i</text><circle cx="722" cy="432" r="2.5" fill="#5F6368"/><text x="744" y="428" font-size="12" fill="#5F6368">clk_i</text><rect x="722" y="526" width="172" height="134" rx="3" fill="#F5F0E8" stroke="#9A7A45" stroke-width="1.3"/><text x="730" y="542" font-weight="bold" font-size="14" fill="#9A7A45">common_sync_4</text><text x="730" y="553" font-style="italic" font-size="9" fill="#666">common_sync</text><circle cx="722" cy="570" r="2.5" fill="#9A7A45"/><text x="744" y="566" font-size="12" fill="#333">resetn_i</text><circle cx="722" cy="612" r="2.5" fill="#5F6368"/><text x="744" y="608" font-size="12" fill="#5F6368">clk_i</text><rect x="722" y="706" width="172" height="134" rx="3" fill="#F5F0E8" stroke="#9A7A45" stroke-width="1.3"/><text x="730" y="722" font-weight="bold" font-size="14" fill="#9A7A45">common_sync_test</text><text x="730" y="733" font-style="italic" font-size="9" fill="#666">common_sync</text><circle cx="722" cy="750" r="2.5" fill="#9A7A45"/><text x="744" y="746" font-size="12" fill="#333">resetn_i</text><circle cx="722" cy="792" r="2.5" fill="#5F6368"/><text x="744" y="788" font-size="12" fill="#5F6368">clk_i</text><rect x="722" y="934" width="172" height="104" rx="3" fill="#F5F0E8" stroke="#9A7A45" stroke-width="1.3"/><text x="730" y="950" font-weight="bold" font-size="14" fill="#9A7A45">test_mgmt</text><rect x="722" y="1084" width="172" height="104" rx="3" fill="#F5F0E8" stroke="#9A7A45" stroke-width="1.3"/><text x="730" y="1100" font-weight="bold" font-size="14" fill="#9A7A45">test_mgmt2</text><rect x="722" y="1234" width="172" height="104" rx="3" fill="#F5F0E8" stroke="#9A7A45" stroke-width="1.3"/><text x="730" y="1250" font-weight="bold" font-size="14" fill="#9A7A45">test_mgmt3</text><rect x="722" y="1384" width="172" height="104" rx="3" fill="#F5F0E8" stroke="#9A7A45" stroke-width="1.3"/><text x="730" y="1400" font-weight="bold" font-size="14" fill="#9A7A45">test_mgmt4</text><rect x="442" y="1534" width="732" height="746" rx="3" fill="#EDF1F6" stroke="#41617F" stroke-width="1.3"/><text x="450" y="1550" font-weight="bold" font-size="14" fill="#41617F">chungo</text><rect x="582" y="1582" width="452" height="650" rx="3" fill="#EDF1F6" stroke="#41617F" stroke-width="1.3"/><text x="590" y="1598" font-weight="bold" font-size="14" fill="#41617F">chungo_inst</text><rect x="722" y="1630" width="172" height="104" rx="3" fill="#F5F0E8" stroke="#9A7A45" stroke-width="1.3"/><text x="730" y="1646" font-weight="bold" font-size="14" fill="#9A7A45">common_sync_chungo12</text><text x="730" y="1657" font-style="italic" font-size="9" fill="#666">common_sync</text><rect x="722" y="1780" width="172" height="104" rx="3" fill="#F5F0E8" stroke="#9A7A45" stroke-width="1.3"/><text x="730" y="1796" font-weight="bold" font-size="14" fill="#9A7A45">common_sync_chungo13</text><text x="730" y="1807" font-style="italic" font-size="9" fill="#666">common_sync</text><rect x="722" y="1930" width="172" height="104" rx="3" fill="#F5F0E8" stroke="#9A7A45" stroke-width="1.3"/><text x="730" y="1946" font-weight="bold" font-size="14" fill="#9A7A45">common_sync_chungo14</text><text x="730" y="1957" font-style="italic" font-size="9" fill="#666">common_sync</text><rect x="722" y="2080" width="172" height="104" rx="3" fill="#F5F0E8" stroke="#9A7A45" stroke-width="1.3"/><text x="730" y="2096" font-weight="bold" font-size="14" fill="#9A7A45">common_sync_chungo15</text><text x="730" y="2107" font-style="italic" font-size="9" fill="#666">common_sync</text><rect x="302" y="2326" width="1012" height="842" rx="3" fill="#EDF1F6" stroke="#41617F" stroke-width="1.3"/><text x="310" y="2342" font-weight="bold" font-size="14" fill="#41617F">mgmt_wrap0</text><rect x="442" y="2374" width="732" height="596" rx="3" fill="#EDF1F6" stroke="#41617F" stroke-width="1.3"/><text x="450" y="2390" font-weight="bold" font-size="14" fill="#41617F">mgmt_wrap1</text><rect x="582" y="2422" width="452" height="350" rx="3" fill="#EDF1F6" stroke="#41617F" stroke-width="1.3"/><text x="590" y="2438" font-weight="bold" font-size="14" fill="#41617F">test_mgmt5</text><rect x="722" y="2470" width="172" height="104" rx="3" fill="#F5F0E8" stroke="#9A7A45" stroke-width="1.3"/><text x="730" y="2486" font-weight="bold" font-size="14" fill="#9A7A45">test_mgmt6</text><rect x="722" y="2620" width="172" height="104" rx="3" fill="#F5F0E8" stroke="#9A7A45" stroke-width="1.3"/><text x="730" y="2636" font-weight="bold" font-size="14" fill="#9A7A45">test_mgmt7</text><rect x="722" y="2818" width="172" height="104" rx="3" fill="#EDF1F6" stroke="#41617F" stroke-width="1.3"/><text x="730" y="2834" font-weight="bold" font-size="14" fill="#41617F">test_mgmt71</text><rect x="722" y="3016" width="172" height="104" rx="3" fill="#F5F0E8" stroke="#9A7A45" stroke-width="1.3"/><text x="730" y="3032" font-weight="bold" font-size="14" fill="#9A7A45">test_mgmt8</text><rect x="722" y="3214" width="172" height="104" rx="3" fill="#F5F0E8" stroke="#9A7A45" stroke-width="1.3"/><text x="730" y="3230" font-weight="bold" font-size="14" fill="#9A7A45">test_mgmt9</text><rect x="1564" y="2176" width="172" height="344" rx="3" fill="#EDF1F6" stroke="#41617F" stroke-width="1.3"/><text x="1572" y="2192" font-weight="bold" font-size="14" fill="#41617F">core</text><circle cx="1564" cy="2220" r="2.5" fill="#41617F"/><text x="1586" y="2216" font-size="12" fill="#333">en_invtest_i</text><circle cx="1564" cy="2252" r="2.5" fill="#41617F"/><text x="1586" y="2248" font-size="12" fill="#333">config_i</text><circle cx="1564" cy="2283" r="2.5" fill="#41617F"/><text x="1586" y="2279" font-size="12" fill="#333">config2_i</text><circle cx="1564" cy="2314" r="2.5" fill="#41617F"/><text x="1586" y="2310" font-size="12" fill="#333">config3_i</text><circle cx="1564" cy="2346" r="2.5" fill="#41617F"/><text x="1586" y="2342" font-size="12" fill="#333">data_i</text><circle cx="1564" cy="2378" r="2.5" fill="#41617F"/><text x="1586" y="2374" font-size="12" fill="#333">config_test0_i</text><circle cx="1564" cy="2409" r="2.5" fill="#41617F"/><text x="1586" y="2405" font-size="12" fill="#333">config_test___1_i</text><circle cx="1564" cy="2440" r="2.5" fill="#41617F"/><text x="1586" y="2436" font-size="12" fill="#333">config_test______2_i</text><circle cx="1564" cy="2472" r="2.5" fill="#5F6368"/><text x="1586" y="2468" font-size="12" fill="#5F6368">clk_i</text><circle cx="1736" cy="2220" r="2.5" fill="#41617F"/><text x="1714" y="2216" font-size="12" text-anchor="end" fill="#333">status_o</text><circle cx="1736" cy="2472" r="2.5" fill="#41617F"/><text x="1714" y="2468" font-size="12" text-anchor="end" fill="#333">status_test_o</text><rect x="722" y="3412" width="172" height="164" rx="3" fill="#F5F0E8" stroke="#9A7A45" stroke-width="1.3"/><text x="730" y="3428" font-weight="bold" font-size="14" fill="#9A7A45">common_sync_a</text><text x="730" y="3439" font-style="italic" font-size="9" fill="#666">common_sync</text><circle cx="722" cy="3456" r="2.5" fill="#9A7A45"/><text x="744" y="3452" font-size="12" fill="#333">testmode_i</text><circle cx="722" cy="3492" r="2.5" fill="#5F6368"/><text x="744" y="3488" font-size="12" fill="#5F6368">reset_n_i</text><circle cx="722" cy="3528" r="2.5" fill="#5F6368"/><text x="744" y="3524" font-size="12" fill="#5F6368">clk_i</text><rect x="722" y="3622" width="172" height="164" rx="3" fill="#F5F0E8" stroke="#9A7A45" stroke-width="1.3"/><text x="730" y="3638" font-weight="bold" font-size="14" fill="#9A7A45">common_sync_b1</text><text x="730" y="3649" font-style="italic" font-size="9" fill="#666">common_sync</text><circle cx="722" cy="3666" r="2.5" fill="#9A7A45"/><text x="744" y="3662" font-size="12" fill="#333">testmode_i</text><circle cx="722" cy="3702" r="2.5" fill="#5F6368"/><text x="744" y="3698" font-size="12" fill="#5F6368">reset_n_i</text><circle cx="722" cy="3738" r="2.5" fill="#5F6368"/><text x="744" y="3734" font-size="12" fill="#5F6368">clk_i</text><rect x="722" y="3832" width="172" height="164" rx="3" fill="#F5F0E8" stroke="#9A7A45" stroke-width="1.3"/><text x="730" y="3848" font-weight="bold" font-size="14" fill="#9A7A45">common_sync_b2</text><text x="730" y="3859" font-style="italic" font-size="9" fill="#666">common_sync</text><circle cx="722" cy="3876" r="2.5" fill="#9A7A45"/><text x="744" y="3872" font-size="12" fill="#333">testmode_i</text><circle cx="722" cy="3912" r="2.5" fill="#5F6368"/><text x="744" y="3908" font-size="12" fill="#5F6368">reset_n_i</text><circle cx="722" cy="3948" r="2.5" fill="#5F6368"/><text x="744" y="3944" font-size="12" fill="#5F6368">clk_i</text><rect x="722" y="4042" width="172" height="164" rx="3" fill="#F5F0E8" stroke="#9A7A45" stroke-width="1.3"/><text x="730" y="4058" font-weight="bold" font-size="14" fill="#9A7A45">common_sync_b3</text><text x="730" y="4069" font-style="italic" font-size="9" fill="#666">common_sync</text><circle cx="722" cy="4086" r="2.5" fill="#9A7A45"/><text x="744" y="4082" font-size="12" fill="#333">testmode_i</text><circle cx="722" cy="4122" r="2.5" fill="#5F6368"/><text x="744" y="4118" font-size="12" fill="#5F6368">reset_n_i</text><circle cx="722" cy="4158" r="2.5" fill="#5F6368"/><text x="744" y="4154" font-size="12" fill="#5F6368">clk_i</text><rect x="722" y="4252" width="172" height="164" rx="3" fill="#F5F0E8" stroke="#9A7A45" stroke-width="1.3"/><text x="730" y="4268" font-weight="bold" font-size="14" fill="#9A7A45">common_sync_b4</text><text x="730" y="4279" font-style="italic" font-size="9" fill="#666">common_sync</text><circle cx="722" cy="4296" r="2.5" fill="#9A7A45"/><text x="744" y="4292" font-size="12" fill="#333">testmode_i</text><circle cx="722" cy="4332" r="2.5" fill="#5F6368"/><text x="744" y="4328" font-size="12" fill="#5F6368">reset_n_i</text><circle cx="722" cy="4368" r="2.5" fill="#5F6368"/><text x="744" y="4364" font-size="12" fill="#5F6368">clk_i</text><rect x="722" y="4462" width="172" height="164" rx="3" fill="#F5F0E8" stroke="#9A7A45" stroke-width="1.3"/><text x="730" y="4478" font-weight="bold" font-size="14" fill="#9A7A45">common_sync_pedge</text><circle cx="722" cy="4506" r="2.5" fill="#9A7A45"/><text x="744" y="4502" font-size="12" fill="#333">testmode_i</text><circle cx="722" cy="4542" r="2.5" fill="#5F6368"/><text x="744" y="4538" font-size="12" fill="#5F6368">reset_n_i</text><circle cx="722" cy="4578" r="2.5" fill="#5F6368"/><text x="744" y="4574" font-size="12" fill="#5F6368">clk_i</text><circle cx="894" cy="4506" r="2.5" fill="#9A7A45"/><text x="872" y="4502" font-size="12" text-anchor="end" fill="#333">data_o</text><polyline points="22,826 140,826 140,114 162,114" fill="none" stroke="#38455A" stroke-width="2.0" stroke-linejoin="round" opacity="0.9"/><rect x="131" y="105" width="18" height="12" rx="2" fill="#FFFFFF" opacity="0.85"/><text x="140" y="114" font-size="9" fill="#38455A" text-anchor="middle">32</text><polyline points="22,1586 116,1586 116,572 162,572" fill="none" stroke="#38455A" stroke-width="2.0" stroke-linejoin="round" opacity="0.9"/><rect x="107" y="563" width="18" height="12" rx="2" fill="#FFFFFF" opacity="0.85"/><text x="116" y="572" font-size="9" fill="#38455A" text-anchor="middle">32</text><polyline points="22,2346 140,2346 140,1029 162,1029" fill="none" stroke="#556170" stroke-width="1.2" stroke-linejoin="round" opacity="0.9"/><polyline points="1454,114 1476,114 1476,66 1876,66" fill="none" stroke="#38455A" stroke-width="2.0" stroke-linejoin="round" opacity="0.9"/><rect x="1467" y="57" width="18" height="12" rx="2" fill="#FFFFFF" opacity="0.85"/><text x="1476" y="66" font-size="9" fill="#38455A" text-anchor="middle">32</text><polyline points="1454,514 1466,514 1466,2220 1564,2220" fill="none" stroke="#556170" stroke-width="1.2" stroke-linejoin="round" opacity="0.9"/><polyline points="1454,915 1520,915 1520,2252 1564,2252" fill="none" stroke="#38455A" stroke-width="2.0" stroke-linejoin="round" opacity="0.9"/><rect x="1511" y="2242" width="18" height="12" rx="2" fill="#FFFFFF" opacity="0.85"/><text x="1520" y="2252" font-size="9" fill="#38455A" text-anchor="middle">32</text><polyline points="1454,1316 1498,1316 1498,2283 1564,2283" fill="none" stroke="#38455A" stroke-width="2.0" stroke-linejoin="round" opacity="0.9"/><rect x="1489" y="2274" width="18" height="12" rx="2" fill="#FFFFFF" opacity="0.85"/><text x="1498" y="2283" font-size="9" fill="#38455A" text-anchor="middle">32</text><polyline points="1454,1716 1476,1716 1476,2314 1564,2314" fill="none" stroke="#38455A" stroke-width="2.0" stroke-linejoin="round" opacity="0.9"/><rect x="1467" y="2306" width="18" height="12" rx="2" fill="#FFFFFF" opacity="0.85"/><text x="1476" y="2314" font-size="9" fill="#38455A" text-anchor="middle">32</text><polyline points="1454,2116 1542,2116 1542,2346 1564,2346" fill="none" stroke="#38455A" stroke-width="2.0" stroke-linejoin="round" opacity="0.9"/><rect x="1521" y="2337" width="42" height="12" rx="2" fill="#FFFFFF" opacity="0.85"/><text x="1542" y="2346" font-size="9" fill="#38455A" text-anchor="middle">DATA_W</text><polyline points="1736,2220 1758,2220 1758,2532 1709,2532 1709,3400 92,3400 92,1487 162,1487" fill="none" stroke="#38455A" stroke-width="2.0" stroke-linejoin="round" opacity="0.9"/><rect x="1700" y="3391" width="18" height="12" rx="2" fill="#FFFFFF" opacity="0.85"/><text x="1709" y="3400" font-size="9" fill="#38455A" text-anchor="middle">16</text><polyline points="1454,2517 1542,2517 1542,2378 1564,2378" fill="none" stroke="#38455A" stroke-width="2.0" stroke-linejoin="round" opacity="0.9"/><rect x="1533" y="2368" width="18" height="12" rx="2" fill="#FFFFFF" opacity="0.85"/><text x="1542" y="2378" font-size="9" fill="#38455A" text-anchor="middle">32</text><polyline points="1454,2918 1476,2918 1476,2409 1564,2409" fill="none" stroke="#38455A" stroke-width="2.0" stroke-linejoin="round" opacity="0.9"/><rect x="1467" y="2400" width="18" height="12" rx="2" fill="#FFFFFF" opacity="0.85"/><text x="1476" y="2409" font-size="9" fill="#38455A" text-anchor="middle">32</text><polyline points="1454,3318 1498,3318 1498,2440 1564,2440" fill="none" stroke="#38455A" stroke-width="2.0" stroke-linejoin="round" opacity="0.9"/><rect x="1489" y="2432" width="18" height="12" rx="2" fill="#FFFFFF" opacity="0.85"/><text x="1498" y="2440" font-size="9" fill="#38455A" text-anchor="middle">32</text><polyline points="1736,2472 1748,2472 1748,3378 150,3378 150,1945 162,1945" fill="none" stroke="#38455A" stroke-width="2.0" stroke-linejoin="round" opacity="0.9"/><rect x="141" y="3369" width="18" height="12" rx="2" fill="#FFFFFF" opacity="0.85"/><text x="150" y="3378" font-size="9" fill="#38455A" text-anchor="middle">16</text><polyline points="22,66 68,66 68,3492 722,3492" fill="none" stroke="#556170" stroke-width="1.2" stroke-linejoin="round" opacity="0.9"/><polyline points="22,66 24,66 24,3702 722,3702" fill="none" stroke="#556170" stroke-width="1.2" stroke-linejoin="round" opacity="0.9"/><polyline points="22,66 44,66 44,3912 722,3912" fill="none" stroke="#556170" stroke-width="1.2" stroke-linejoin="round" opacity="0.9"/><polyline points="22,66 44,66 44,58 150,58 150,1945 116,1945 116,4122 722,4122" fill="none" stroke="#556170" stroke-width="1.2" stroke-linejoin="round" opacity="0.9"/><polyline points="22,66 44,66 44,114 92,114 92,2314 140,2314 140,4332 722,4332" fill="none" stroke="#556170" stroke-width="1.2" stroke-linejoin="round" opacity="0.9"/><polyline points="22,66 116,66 116,3378 150,3378 150,4542 722,4542" fill="none" stroke="#556170" stroke-width="1.2" stroke-linejoin="round" opacity="0.9"/><polyline points="722,3456 700,3456 700,3666 722,3666" fill="none" stroke="#556170" stroke-width="1.2" stroke-linejoin="round" opacity="0.9"/><polyline points="722,3456 590,3456 590,3876 722,3876" fill="none" stroke="#556170" stroke-width="1.2" stroke-linejoin="round" opacity="0.9"/><polyline points="722,3456 710,3456 710,4086 722,4086" fill="none" stroke="#556170" stroke-width="1.2" stroke-linejoin="round" opacity="0.9"/><polyline points="722,3456 700,3456 700,4296 722,4296" fill="none" stroke="#556170" stroke-width="1.2" stroke-linejoin="round" opacity="0.9"/><polyline points="722,3456 590,3456 590,4506 722,4506" fill="none" stroke="#556170" stroke-width="1.2" stroke-linejoin="round" opacity="0.9"/><polyline points="162,114 184,114 184,162 582,162" fill="none" stroke="#38455A" stroke-width="2.0" stroke-linejoin="round" opacity="0.9"/><rect x="175" y="153" width="18" height="12" rx="2" fill="#FFFFFF" opacity="0.85"/><text x="184" y="162" font-size="9" fill="#38455A" text-anchor="middle">32</text><polyline points="162,572 184,572 184,275 582,275" fill="none" stroke="#38455A" stroke-width="2.0" stroke-linejoin="round" opacity="0.9"/><rect x="175" y="266" width="18" height="12" rx="2" fill="#FFFFFF" opacity="0.85"/><text x="184" y="275" font-size="9" fill="#38455A" text-anchor="middle">32</text><polyline points="162,1029 560,1029 560,388 582,388" fill="none" stroke="#556170" stroke-width="1.2" stroke-linejoin="round" opacity="0.9"/><polyline points="1034,162 1056,162 1056,114 1454,114" fill="none" stroke="#38455A" stroke-width="2.0" stroke-linejoin="round" opacity="0.9"/><rect x="1047" y="105" width="18" height="12" rx="2" fill="#FFFFFF" opacity="0.85"/><text x="1056" y="114" font-size="9" fill="#38455A" text-anchor="middle">32</text><polyline points="1034,259 1056,259 1056,915 1454,915" fill="none" stroke="#38455A" stroke-width="2.0" stroke-linejoin="round" opacity="0.9"/><rect x="1047" y="906" width="18" height="12" rx="2" fill="#FFFFFF" opacity="0.85"/><text x="1056" y="915" font-size="9" fill="#38455A" text-anchor="middle">32</text><polyline points="1034,356 1432,356 1432,1316 1454,1316" fill="none" stroke="#38455A" stroke-width="2.0" stroke-linejoin="round" opacity="0.9"/><rect x="1423" y="1306" width="18" height="12" rx="2" fill="#FFFFFF" opacity="0.85"/><text x="1432" y="1316" font-size="9" fill="#38455A" text-anchor="middle">32</text><polyline points="1034,453 1379,453 1379,1716 1454,1716" fill="none" stroke="#38455A" stroke-width="2.0" stroke-linejoin="round" opacity="0.9"/><rect x="1370" y="1707" width="18" height="12" rx="2" fill="#FFFFFF" opacity="0.85"/><text x="1379" y="1716" font-size="9" fill="#38455A" text-anchor="middle">32</text><polyline points="1034,549 1214,549 1214,2116 1454,2116" fill="none" stroke="#38455A" stroke-width="2.0" stroke-linejoin="round" opacity="0.9"/><rect x="1193" y="2108" width="42" height="12" rx="2" fill="#FFFFFF" opacity="0.85"/><text x="1214" y="2116" font-size="9" fill="#38455A" text-anchor="middle">DATA_W</text><polyline points="162,1487 264,1487 264,501 582,501" fill="none" stroke="#38455A" stroke-width="2.0" stroke-linejoin="round" opacity="0.9"/><rect x="254" y="492" width="18" height="12" rx="2" fill="#FFFFFF" opacity="0.85"/><text x="264" y="501" font-size="9" fill="#38455A" text-anchor="middle">16</text><polyline points="1034,646 1326,646 1326,2517 1454,2517" fill="none" stroke="#38455A" stroke-width="2.0" stroke-linejoin="round" opacity="0.9"/><rect x="1317" y="2508" width="18" height="12" rx="2" fill="#FFFFFF" opacity="0.85"/><text x="1326" y="2517" font-size="9" fill="#38455A" text-anchor="middle">32</text><polyline points="1034,743 1352,743 1352,2918 1454,2918" fill="none" stroke="#38455A" stroke-width="2.0" stroke-linejoin="round" opacity="0.9"/><rect x="1344" y="2908" width="18" height="12" rx="2" fill="#FFFFFF" opacity="0.85"/><text x="1352" y="2918" font-size="9" fill="#38455A" text-anchor="middle">32</text><polyline points="1034,840 1406,840 1406,3318 1454,3318" fill="none" stroke="#38455A" stroke-width="2.0" stroke-linejoin="round" opacity="0.9"/><rect x="1396" y="3309" width="18" height="12" rx="2" fill="#FFFFFF" opacity="0.85"/><text x="1406" y="3318" font-size="9" fill="#38455A" text-anchor="middle">32</text><polyline points="162,1945 210,1945 210,614 582,614" fill="none" stroke="#38455A" stroke-width="2.0" stroke-linejoin="round" opacity="0.9"/><rect x="202" y="605" width="18" height="12" rx="2" fill="#FFFFFF" opacity="0.85"/><text x="210" y="614" font-size="9" fill="#38455A" text-anchor="middle">16</text><rect x="22" y="4696.0" width="250" height="132" rx="4" fill="#FFFFFF" stroke="#9AA6B4"/><text x="32" y="4714.0" font-weight="bold" font-size="12" fill="#333">Legend</text><line x1="34" y1="4730.0" x2="66" y2="4730.0" stroke="#38455A" stroke-width="2.0"/><text x="74" y="4734.0" font-size="10" fill="#333">bus (multi-bit, width labelled)</text><line x1="34" y1="4752.0" x2="66" y2="4752.0" stroke="#556170" stroke-width="1.2"/><text x="74" y="4756.0" font-size="10" fill="#333">control (1-bit)</text><line x1="34" y1="4774.0" x2="66" y2="4774.0" stroke="#557A60" stroke-width="1.6"/><text x="74" y="4778.0" font-size="10" fill="#333">bidirectional</text><circle cx="50" cy="4796.0" r="4" fill="#9AA0A6" stroke="#5F6368"/><text x="74" y="4800.0" font-size="10" fill="#333">clk / reset (implicit, not routed)</text></svg>